<svg width="340" height="210" viewBox="0 0 340 210" fill="none" xmlns="http://www.w3.org/2000/svg">
<path d="M0 40C0 21.1438 0 11.7157 5.85786 5.85786C11.7157 0 21.1438 0 40 0H197.912C210.218 0 216.371 0 221.201 2.98336C222.031 3.49556 222.822 4.06772 223.568 4.69526C227.913 8.35036 229.838 14.1945 233.687 25.8829C237.537 37.5712 239.462 43.4154 243.807 47.0705C244.553 47.698 245.344 48.2702 246.173 48.7824C251.004 51.7657 257.157 51.7657 269.463 51.7657H300C318.856 51.7657 328.284 51.7657 334.142 57.6236C340 63.4815 340 72.9096 340 91.7657V170C340 188.856 340 198.284 334.142 204.142C328.284 210 318.856 210 300 210H40C21.1438 210 11.7157 210 5.85786 204.142C0 198.284 0 188.856 0 170V40Z" fill="url(#paint0_linear_71_6705)"/>
<defs>
<linearGradient id="paint0_linear_71_6705" x1="0" y1="0" x2="324.431" y2="199.852" gradientUnits="userSpaceOnUse">
<stop stop-color="#B67DFF"/>
<stop offset="0.58" stop-color="#821FFF"/>
<stop offset="1" stop-color="#5E06CD"/>
</linearGradient>
</defs>
</svg>
