<svg width="40" height="41" viewBox="0 0 40 41" fill="none" xmlns="http://www.w3.org/2000/svg">
<rect y="0.5" width="40" height="40" rx="20" fill="#DFE1E7"/>
<rect x="10" y="10.5" width="20" height="20" rx="10" fill="#0033AD"/>
<path d="M16.9007 20.5273C16.8861 20.7814 16.973 21.031 17.1423 21.2211C17.3115 21.4112 17.5494 21.5263 17.8035 21.5412H17.8559C18.043 21.541 18.226 21.486 18.3823 21.3829C18.5386 21.2799 18.6613 21.1334 18.7352 20.9615C18.8092 20.7896 18.8312 20.5997 18.7985 20.4155C18.7658 20.2312 18.6799 20.0605 18.5513 19.9245C18.4227 19.7885 18.2572 19.6931 18.075 19.6501C17.8929 19.6071 17.7021 19.6183 17.5263 19.6825C17.3505 19.7467 17.1973 19.8609 17.0856 20.0111C16.974 20.1613 16.9088 20.341 16.898 20.5278L16.9007 20.5273Z" fill="white"/>
<path d="M13.3269 20.2843C13.2658 20.2809 13.2051 20.2956 13.1524 20.3267C13.0997 20.3578 13.0574 20.4038 13.0308 20.459C13.0042 20.5141 12.9946 20.5759 13.0031 20.6365C13.0117 20.6971 13.038 20.7538 13.0787 20.7994C13.1195 20.8451 13.1729 20.8776 13.2321 20.893C13.2913 20.9083 13.3538 20.9057 13.4116 20.8855C13.4694 20.8654 13.5199 20.8286 13.5567 20.7797C13.5936 20.7309 13.6151 20.6722 13.6186 20.6111C13.621 20.5704 13.6154 20.5297 13.602 20.4913C13.5886 20.4528 13.5678 20.4174 13.5407 20.3871C13.5136 20.3567 13.4807 20.332 13.4441 20.3143C13.4074 20.2967 13.3676 20.2865 13.3269 20.2843Z" fill="white"/>
<path d="M16.8399 14.9651C16.8943 14.9371 16.9393 14.8937 16.9691 14.8403C16.9988 14.7868 17.0122 14.7258 17.0073 14.6648C17.0025 14.6038 16.9798 14.5456 16.9419 14.4976C16.9041 14.4495 16.8529 14.4137 16.7948 14.3946C16.7366 14.3756 16.6742 14.3742 16.6152 14.3906C16.5563 14.407 16.5035 14.4404 16.4636 14.4867C16.4236 14.533 16.3982 14.5901 16.3906 14.6508C16.3831 14.7115 16.3936 14.7731 16.4209 14.8279C16.4393 14.8645 16.4648 14.8971 16.4958 14.9239C16.5269 14.9506 16.5629 14.9709 16.6019 14.9837C16.6408 14.9965 16.6819 15.0014 16.7227 14.9982C16.7636 14.995 16.8034 14.9837 16.8399 14.9651Z" fill="white"/>
<path d="M17.8124 16.6608C17.8969 16.6182 17.9669 16.5514 18.0135 16.4691C18.0601 16.3867 18.0812 16.2923 18.0742 16.1979C18.0672 16.1035 18.0323 16.0133 17.974 15.9387C17.9157 15.8641 17.8367 15.8085 17.7468 15.7789C17.6569 15.7492 17.5602 15.7469 17.469 15.7722C17.3778 15.7975 17.2961 15.8492 17.2343 15.9209C17.1725 15.9926 17.1333 16.081 17.1218 16.175C17.1102 16.2689 17.1267 16.3642 17.1693 16.4487C17.1976 16.5049 17.2367 16.5549 17.2843 16.596C17.3319 16.637 17.3872 16.6683 17.4469 16.688C17.5066 16.7077 17.5697 16.7154 17.6324 16.7108C17.6951 16.7061 17.7563 16.6891 17.8124 16.6608Z" fill="white"/>
<path d="M14.5398 17.8271C14.605 17.87 14.6814 17.8925 14.7595 17.8919C14.8375 17.8913 14.9136 17.8676 14.9781 17.8238C15.0426 17.7799 15.0927 17.7179 15.122 17.6456C15.1513 17.5733 15.1585 17.494 15.1426 17.4176C15.1268 17.3412 15.0886 17.2712 15.033 17.2165C14.9774 17.1618 14.9068 17.1248 14.8302 17.1102C14.7535 17.0956 14.6743 17.1041 14.6025 17.1346C14.5306 17.1651 14.4695 17.2161 14.4267 17.2814C14.3694 17.3688 14.3491 17.4753 14.3704 17.5776C14.3916 17.68 14.4525 17.7697 14.5398 17.8271Z" fill="white"/>
<path d="M15.1227 20.1099C15.0282 20.1046 14.9342 20.1274 14.8527 20.1754C14.7712 20.2235 14.7057 20.2946 14.6646 20.3799C14.6235 20.4651 14.6086 20.5607 14.6217 20.6544C14.6349 20.7481 14.6755 20.8358 14.7386 20.9065C14.8016 20.9771 14.8841 21.0275 14.9757 21.0512C15.0674 21.0749 15.164 21.0709 15.2533 21.0398C15.3427 21.0086 15.4208 20.9516 15.4778 20.8761C15.5348 20.8005 15.5682 20.7098 15.5736 20.6153C15.5807 20.4885 15.5373 20.364 15.4527 20.2693C15.3682 20.1745 15.2495 20.1172 15.1227 20.1099Z" fill="white"/>
<path d="M14.5922 23.328C14.5226 23.3632 14.465 23.4182 14.4266 23.4861C14.3883 23.554 14.371 23.6318 14.3768 23.7095C14.3827 23.7873 14.4114 23.8616 14.4595 23.923C14.5075 23.9844 14.5727 24.0302 14.6468 24.0546C14.7209 24.0789 14.8005 24.0808 14.8756 24.0599C14.9508 24.0391 15.018 23.9964 15.0689 23.9373C15.1198 23.8782 15.152 23.8053 15.1615 23.7279C15.171 23.6505 15.1573 23.5721 15.1222 23.5024C15.0988 23.4562 15.0666 23.4149 15.0274 23.3811C14.9881 23.3473 14.9425 23.3216 14.8933 23.3054C14.8441 23.2892 14.7922 23.2829 14.7405 23.2867C14.6888 23.2906 14.6384 23.3047 14.5922 23.328Z" fill="white"/>
<path d="M16.4529 19.1206C16.5461 19.1817 16.6553 19.2138 16.7668 19.2128C16.8782 19.2118 16.9869 19.1778 17.079 19.1151C17.1711 19.0523 17.2425 18.9637 17.2843 18.8604C17.326 18.757 17.3362 18.6436 17.3135 18.5345C17.2908 18.4254 17.2362 18.3255 17.1567 18.2474C17.0772 18.1693 16.9764 18.1165 16.8669 18.0957C16.7574 18.0749 16.6442 18.0871 16.5416 18.1306C16.439 18.1741 16.3517 18.2471 16.2905 18.3403C16.2499 18.4022 16.2218 18.4715 16.208 18.5442C16.1941 18.6169 16.1948 18.6917 16.2099 18.7641C16.2249 18.8366 16.2542 18.9054 16.2959 18.9666C16.3376 19.0278 16.3909 19.0801 16.4529 19.1206Z" fill="white"/>
<path d="M22.356 16.6231C22.4354 16.6749 22.5283 16.7019 22.6231 16.7009C22.7178 16.6999 22.8101 16.6708 22.8884 16.6173C22.9666 16.5638 23.0272 16.4883 23.0625 16.4004C23.0978 16.3125 23.1063 16.216 23.0868 16.1233C23.0673 16.0306 23.0208 15.9457 22.9531 15.8794C22.8854 15.8131 22.7996 15.7684 22.7065 15.7508C22.6133 15.7333 22.5171 15.7438 22.4299 15.7809C22.3428 15.8181 22.2686 15.8803 22.2167 15.9596C22.1822 16.0123 22.1584 16.0712 22.1468 16.1331C22.1351 16.195 22.1357 16.2586 22.1487 16.3203C22.1616 16.3819 22.1866 16.4404 22.2222 16.4923C22.2578 16.5443 22.3032 16.5887 22.356 16.6231Z" fill="white"/>
<path d="M23.3385 14.9326C23.3898 14.9662 23.4499 14.9839 23.5113 14.9833C23.5726 14.9828 23.6324 14.964 23.6831 14.9295C23.7337 14.895 23.773 14.8462 23.796 14.7893C23.8189 14.7324 23.8245 14.67 23.812 14.6099C23.7994 14.5499 23.7694 14.4949 23.7256 14.452C23.6818 14.409 23.6262 14.38 23.566 14.3687C23.5057 14.3573 23.4434 14.364 23.387 14.3881C23.3305 14.4121 23.2825 14.4523 23.249 14.5037C23.204 14.5725 23.1882 14.6563 23.205 14.7367C23.2218 14.8171 23.2698 14.8876 23.3385 14.9326Z" fill="white"/>
<path d="M22.4315 19.615C22.3058 19.6078 22.1799 19.6254 22.061 19.6668C21.9421 19.7082 21.8326 19.7727 21.7386 19.8564C21.5488 20.0256 21.434 20.2632 21.4194 20.5171C21.4048 20.7709 21.4917 21.0201 21.6608 21.2099C21.83 21.3997 22.0676 21.5145 22.3215 21.5291C22.3398 21.5291 22.3587 21.5291 22.377 21.5291C22.5619 21.529 22.7428 21.4755 22.898 21.3748C23.0531 21.2742 23.1758 21.1309 23.2513 20.9621C23.3268 20.7933 23.3519 20.6063 23.3235 20.4236C23.2951 20.2409 23.2145 20.0703 23.0913 19.9324C23.0079 19.8383 22.9066 19.7618 22.7933 19.7073C22.68 19.6528 22.557 19.6214 22.4315 19.615Z" fill="white"/>
<path d="M18.1272 19.0541C18.2067 19.2131 18.3291 19.3466 18.4804 19.4398C18.6318 19.533 18.8062 19.5821 18.9839 19.5815C19.1478 19.5815 19.309 19.5396 19.452 19.4596C19.595 19.3796 19.7152 19.2644 19.801 19.1248C19.8869 18.9852 19.9355 18.8259 19.9422 18.6622C19.949 18.4984 19.9137 18.3357 19.8397 18.1895C19.7595 18.0313 19.637 17.8985 19.4856 17.806C19.3343 17.7135 19.1602 17.6649 18.9829 17.6658C18.8195 17.6661 18.6589 17.7081 18.5164 17.7878C18.3738 17.8676 18.2539 17.9825 18.1682 18.1215C18.0825 18.2606 18.0337 18.4193 18.0266 18.5825C18.0194 18.7457 18.054 18.908 18.1272 19.0541Z" fill="white"/>
<path d="M25.6423 17.826C25.7119 17.7909 25.7695 17.7359 25.8079 17.6681C25.8462 17.6002 25.8636 17.5225 25.8579 17.4447C25.8521 17.367 25.8234 17.2927 25.7754 17.2312C25.7274 17.1698 25.6622 17.1239 25.5882 17.0995C25.5141 17.0751 25.4345 17.0731 25.3594 17.0939C25.2842 17.1147 25.2169 17.1573 25.166 17.2164C25.1151 17.2754 25.0828 17.3482 25.0732 17.4256C25.0637 17.503 25.0773 17.5815 25.1123 17.6511C25.1594 17.7446 25.2417 17.8155 25.3411 17.8483C25.4404 17.8811 25.5488 17.8731 25.6423 17.826Z" fill="white"/>
<path d="M23.2118 18.1314C23.1122 18.1815 23.0298 18.26 22.9749 18.357C22.92 18.454 22.895 18.5651 22.9033 18.6762C22.9115 18.7874 22.9525 18.8936 23.0211 18.9814C23.0897 19.0693 23.1828 19.1348 23.2886 19.1697C23.3944 19.2047 23.5082 19.2074 23.6157 19.1777C23.7231 19.1479 23.8192 19.087 23.892 19.0026C23.9648 18.9182 24.0109 18.8141 24.0245 18.7035C24.0381 18.5929 24.0186 18.4807 23.9685 18.3812C23.9353 18.315 23.8893 18.2561 23.8333 18.2077C23.7773 18.1594 23.7122 18.1225 23.6419 18.0993C23.5717 18.0761 23.4975 18.067 23.4237 18.0725C23.3499 18.078 23.2778 18.098 23.2118 18.1314Z" fill="white"/>
<path d="M20.0811 14.7881C20.159 14.7925 20.2364 14.7737 20.3036 14.7341C20.3708 14.6946 20.4248 14.6359 20.4587 14.5657C20.4926 14.4954 20.5049 14.4167 20.494 14.3394C20.4831 14.2622 20.4496 14.1899 20.3977 14.1317C20.3457 14.0735 20.2776 14.032 20.2021 14.0125C20.1266 13.993 20.047 13.9964 19.9733 14.0221C19.8997 14.0479 19.8354 14.0949 19.7884 14.1572C19.7415 14.2195 19.7142 14.2944 19.7098 14.3722C19.7039 14.4766 19.7397 14.579 19.8094 14.657C19.879 14.735 19.9767 14.7821 20.0811 14.7881Z" fill="white"/>
<path d="M20.0769 17.2699C20.1881 17.2761 20.2987 17.2492 20.3947 17.1926C20.4907 17.136 20.5677 17.0522 20.6161 16.9519C20.6644 16.8515 20.682 16.739 20.6664 16.6287C20.6509 16.5184 20.603 16.4151 20.5288 16.332C20.4546 16.2489 20.3575 16.1896 20.2496 16.1617C20.1417 16.1338 20.028 16.1385 19.9228 16.1752C19.8176 16.2119 19.7257 16.279 19.6586 16.3679C19.5915 16.4569 19.5523 16.5637 19.5459 16.6749C19.5374 16.8242 19.5886 16.9708 19.6882 17.0823C19.7878 17.1939 19.9276 17.2614 20.0769 17.2699Z" fill="white"/>
<path d="M17.0237 23.0222C17.1233 22.972 17.2057 22.8934 17.2605 22.7964C17.3154 22.6994 17.3403 22.5883 17.332 22.4771C17.3237 22.366 17.2826 22.2598 17.214 22.172C17.1454 22.0842 17.0522 22.0187 16.9463 21.9838C16.8405 21.9489 16.7267 21.9462 16.6193 21.9761C16.5119 22.0059 16.4157 22.0669 16.343 22.1514C16.2703 22.2358 16.2242 22.34 16.2107 22.4506C16.1972 22.5612 16.2168 22.6734 16.267 22.7729C16.3343 22.9063 16.4518 23.0075 16.5937 23.0542C16.7356 23.101 16.8903 23.0895 17.0237 23.0222Z" fill="white"/>
<path d="M20.4409 18.0921C20.324 18.2704 20.2699 18.4827 20.2873 18.6952C20.3046 18.9077 20.3923 19.1084 20.5365 19.2655C20.6807 19.4226 20.8732 19.5271 21.0835 19.5624C21.2937 19.5978 21.5098 19.5621 21.6975 19.4608C21.8852 19.3596 22.0337 19.1986 22.1196 19.0035C22.2055 18.8083 22.2239 18.5901 22.1718 18.3833C22.1197 18.1765 22.0002 17.993 21.8321 17.8618C21.664 17.7306 21.4569 17.6593 21.2437 17.659C21.0845 17.6589 20.9277 17.6984 20.7875 17.774C20.6474 17.8496 20.5282 17.9589 20.4409 18.0921Z" fill="white"/>
<path d="M22.1073 22.1C22.0305 21.9477 21.9145 21.8187 21.7712 21.7262C21.6279 21.6338 21.4626 21.5812 21.2922 21.574C21.1218 21.5667 20.9526 21.6051 20.802 21.6851C20.6514 21.7651 20.5249 21.8838 20.4355 22.029C20.3461 22.1742 20.297 22.3407 20.2934 22.5112C20.2898 22.6817 20.3317 22.85 20.4149 22.9989C20.4981 23.1478 20.6194 23.2717 20.7665 23.3581C20.9136 23.4444 21.081 23.4899 21.2516 23.4899C21.4016 23.4888 21.5493 23.453 21.6831 23.3851C21.9094 23.2706 22.0811 23.071 22.1606 22.8301C22.2401 22.5893 22.2209 22.3267 22.1073 22.1Z" fill="white"/>
<path d="M23.7821 22.0329C23.6889 21.9718 23.5797 21.9396 23.4683 21.9405C23.3568 21.9414 23.2481 21.9753 23.156 22.038C23.0638 22.1007 22.9923 22.1893 22.9505 22.2926C22.9087 22.3959 22.8984 22.5093 22.9211 22.6184C22.9437 22.7275 22.9982 22.8275 23.0776 22.9057C23.1571 22.9838 23.2579 23.0367 23.3674 23.0575C23.4769 23.0784 23.5901 23.0663 23.6927 23.0228C23.7953 22.9793 23.8827 22.9064 23.9439 22.8132C24.0256 22.6882 24.0545 22.5359 24.0242 22.3897C23.9938 22.2434 23.9068 22.1151 23.7821 22.0329Z" fill="white"/>
<path d="M25.6171 20.5933C25.6225 20.4988 25.5997 20.4048 25.5516 20.3233C25.5035 20.2417 25.4324 20.1763 25.3471 20.1352C25.2619 20.094 25.1664 20.0791 25.0726 20.0923C24.9789 20.1055 24.8912 20.1461 24.8205 20.2091C24.7499 20.2722 24.6996 20.3547 24.6758 20.4463C24.6521 20.5379 24.6561 20.6345 24.6873 20.7239C24.7184 20.8133 24.7754 20.8914 24.8509 20.9484C24.9265 21.0054 25.0173 21.0387 25.1118 21.0442C25.2385 21.0513 25.363 21.0079 25.4577 20.9233C25.5525 20.8388 25.6098 20.7201 25.6171 20.5933Z" fill="white"/>
<path d="M26.9431 20.2523C26.8819 20.2488 26.821 20.2635 26.7682 20.2946C26.7153 20.3257 26.6729 20.3717 26.6462 20.427C26.6195 20.4822 26.6098 20.544 26.6183 20.6048C26.6268 20.6655 26.6531 20.7224 26.6939 20.7681C26.7347 20.8139 26.7881 20.8466 26.8475 20.862C26.9068 20.8774 26.9694 20.8748 27.0273 20.8546C27.0852 20.8345 27.1358 20.7976 27.1728 20.7486C27.2097 20.6997 27.2313 20.6409 27.2348 20.5797C27.2394 20.4976 27.2113 20.4171 27.1566 20.3557C27.1019 20.2944 27.0252 20.2572 26.9431 20.2523Z" fill="white"/>
<path d="M25.6946 23.3265C25.6294 23.2837 25.553 23.2613 25.475 23.262C25.397 23.2627 25.321 23.2865 25.2565 23.3304C25.1921 23.3743 25.1421 23.4364 25.1129 23.5087C25.0837 23.581 25.0766 23.6603 25.0925 23.7367C25.1084 23.813 25.1465 23.8829 25.2021 23.9376C25.2578 23.9923 25.3283 24.0292 25.4049 24.0438C25.4816 24.0583 25.5608 24.0498 25.6326 24.0194C25.7043 23.9889 25.7655 23.9379 25.8083 23.8727C25.8367 23.8294 25.8563 23.7809 25.866 23.73C25.8756 23.6791 25.8752 23.6268 25.8646 23.576C25.8541 23.5253 25.8336 23.4771 25.8045 23.4343C25.7753 23.3915 25.738 23.3549 25.6946 23.3265Z" fill="white"/>
<path d="M16.8965 26.221C16.8452 26.1873 16.7851 26.1696 16.7238 26.1701C16.6625 26.1707 16.6027 26.1893 16.552 26.2238C16.5013 26.2583 16.462 26.307 16.439 26.3639C16.416 26.4207 16.4104 26.4831 16.4228 26.5431C16.4352 26.6031 16.4652 26.6581 16.5089 26.7011C16.5526 26.7441 16.6081 26.7732 16.6683 26.7847C16.7285 26.7962 16.7908 26.7896 16.8473 26.7657C16.9037 26.7417 16.9518 26.7016 16.9855 26.6504C17.0079 26.6164 17.0233 26.5782 17.0309 26.5382C17.0385 26.4982 17.0382 26.4571 17.03 26.4172C17.0217 26.3773 17.0056 26.3395 16.9827 26.3058C16.9598 26.2721 16.9305 26.2433 16.8965 26.221Z" fill="white"/>
<path d="M23.3945 26.1885C23.3398 26.2161 23.2944 26.2593 23.2642 26.3127C23.234 26.3661 23.2204 26.4272 23.2249 26.4883C23.2295 26.5495 23.252 26.6079 23.2898 26.6562C23.3276 26.7046 23.3788 26.7406 23.437 26.7598C23.4953 26.779 23.5579 26.7805 23.617 26.7641C23.6761 26.7477 23.729 26.7141 23.769 26.6677C23.809 26.6212 23.8344 26.5639 23.8418 26.503C23.8493 26.4422 23.8385 26.3804 23.8109 26.3257C23.7926 26.2893 23.7673 26.2569 23.7365 26.2303C23.7056 26.2037 23.6699 26.1834 23.6312 26.1707C23.5925 26.1579 23.5517 26.1529 23.5111 26.156C23.4705 26.1591 23.4309 26.1701 23.3945 26.1885Z" fill="white"/>
<path d="M19.7936 23.0599C19.9105 22.8815 19.9645 22.6693 19.9472 22.4567C19.9298 22.2442 19.8421 22.0435 19.6979 21.8864C19.5536 21.7293 19.3611 21.6248 19.1508 21.5895C18.9405 21.5542 18.7244 21.59 18.5367 21.6913C18.3491 21.7926 18.2006 21.9536 18.1147 22.1488C18.0288 22.344 18.0106 22.5623 18.0627 22.7691C18.1149 22.9758 18.2345 23.1593 18.4027 23.2904C18.5709 23.4216 18.778 23.4928 18.9913 23.493C19.1505 23.4935 19.3074 23.4542 19.4475 23.3785C19.5877 23.3029 19.7066 23.1933 19.7936 23.0599Z" fill="white"/>
<path d="M17.8784 24.531C17.7992 24.4792 17.7064 24.452 17.6118 24.4529C17.5171 24.4538 17.4249 24.4828 17.3467 24.5361C17.2685 24.5894 17.2078 24.6647 17.1724 24.7525C17.137 24.8403 17.1285 24.9366 17.1478 25.0293C17.1671 25.1219 17.2135 25.2068 17.281 25.2731C17.3485 25.3394 17.4342 25.3842 17.5272 25.4018C17.6202 25.4195 17.7163 25.4091 17.8034 25.3721C17.8906 25.3351 17.9648 25.2731 18.0167 25.194C18.0862 25.0877 18.1107 24.9582 18.0847 24.8339C18.0588 24.7096 17.9846 24.6006 17.8784 24.531Z" fill="white"/>
<path d="M20.113 26.3655C20.0352 26.3611 19.9578 26.3798 19.8906 26.4194C19.8234 26.459 19.7694 26.5176 19.7355 26.5878C19.7016 26.658 19.6893 26.7367 19.7001 26.814C19.7109 26.8912 19.7444 26.9635 19.7963 27.0217C19.8482 27.0799 19.9162 27.1214 19.9917 27.1409C20.0672 27.1605 20.1468 27.1572 20.2204 27.1316C20.2941 27.1059 20.3585 27.059 20.4054 26.9967C20.4524 26.9345 20.4799 26.8597 20.4843 26.7818C20.4873 26.7301 20.4801 26.6783 20.463 26.6294C20.446 26.5805 20.4194 26.5354 20.3849 26.4967C20.3505 26.4581 20.3087 26.4266 20.262 26.4041C20.2154 26.3815 20.1648 26.3684 20.113 26.3655Z" fill="white"/>
<path d="M20.1172 23.8842C20.0059 23.8774 19.895 23.9039 19.7987 23.9601C19.7024 24.0164 19.625 24.1 19.5762 24.2003C19.5275 24.3007 19.5096 24.4132 19.5248 24.5237C19.5401 24.6342 19.5878 24.7377 19.6619 24.8211C19.736 24.9044 19.8332 24.9639 19.9411 24.992C20.0491 25.0201 20.163 25.0155 20.2683 24.9788C20.3736 24.9422 20.4657 24.8751 20.5329 24.786C20.6001 24.697 20.6393 24.59 20.6456 24.4786C20.6542 24.3297 20.6034 24.1836 20.5043 24.0721C20.4053 23.9607 20.2661 23.8931 20.1172 23.8842Z" fill="white"/>
<path d="M22.422 24.4927C22.3375 24.5357 22.2675 24.6027 22.2211 24.6853C22.1746 24.768 22.1538 24.8626 22.1611 24.9571C22.1684 25.0517 22.2037 25.1419 22.2623 25.2164C22.3209 25.2909 22.4004 25.3464 22.4905 25.3757C22.5807 25.4051 22.6776 25.407 22.7688 25.3813C22.8601 25.3556 22.9417 25.3033 23.0033 25.2312C23.0648 25.1591 23.1036 25.0704 23.1147 24.9762C23.1258 24.882 23.1088 24.7867 23.0657 24.7022C23.0372 24.6462 22.998 24.5963 22.9502 24.5554C22.9024 24.5145 22.8471 24.4835 22.7873 24.464C22.7275 24.4445 22.6645 24.4371 22.6018 24.442C22.5391 24.4469 22.478 24.4642 22.422 24.4927Z" fill="white"/>
</svg>
