<svg width="20" height="21" viewBox="0 0 20 21" fill="none" xmlns="http://www.w3.org/2000/svg">
<rect y="0.857178" width="20" height="20" rx="10" fill="#0033AD"/>
<path d="M6.90064 10.8845C6.88605 11.1386 6.97295 11.3881 7.14224 11.5783C7.31153 11.7684 7.54937 11.8835 7.8035 11.8983H7.85587C8.04303 11.8981 8.22603 11.8431 8.3823 11.7401C8.53856 11.6371 8.66124 11.4906 8.73519 11.3187C8.80915 11.1467 8.83114 10.9569 8.79846 10.7726C8.76578 10.5883 8.67986 10.4177 8.55129 10.2817C8.42273 10.1456 8.25715 10.0502 8.075 10.0072C7.89284 9.96424 7.70208 9.97552 7.52626 10.0397C7.35045 10.1038 7.19726 10.2181 7.08562 10.3683C6.97398 10.5185 6.90876 10.6981 6.89802 10.885L6.90064 10.8845Z" fill="white"/>
<path d="M3.32691 10.6415C3.26581 10.638 3.20507 10.6528 3.15236 10.6839C3.09965 10.715 3.05735 10.761 3.03078 10.8161C3.00422 10.8713 2.9946 10.933 3.00313 10.9936C3.01166 11.0542 3.03796 11.1109 3.07871 11.1566C3.11947 11.2022 3.17283 11.2348 3.23208 11.2501C3.29132 11.2655 3.35378 11.2629 3.41156 11.2427C3.46934 11.2226 3.51985 11.1857 3.5567 11.1369C3.59355 11.088 3.6151 11.0293 3.61861 10.9683C3.62102 10.9276 3.61537 10.8869 3.60199 10.8485C3.58862 10.81 3.56778 10.7746 3.54068 10.7442C3.51357 10.7139 3.48073 10.6892 3.44405 10.6715C3.40736 10.6539 3.36755 10.6437 3.32691 10.6415Z" fill="white"/>
<path d="M6.83989 5.32224C6.89431 5.2943 6.93924 5.25088 6.96904 5.19745C6.99883 5.14403 7.01215 5.08298 7.00733 5.022C7.0025 4.96101 6.97975 4.90282 6.94192 4.85475C6.90409 4.80667 6.85289 4.77086 6.79476 4.75182C6.73662 4.73278 6.67415 4.73136 6.61522 4.74775C6.55628 4.76414 6.50351 4.79759 6.46354 4.84391C6.42358 4.89022 6.39821 4.94732 6.39062 5.00802C6.38304 5.06872 6.39359 5.13031 6.42093 5.18503C6.43931 5.22166 6.46476 5.25429 6.49581 5.28104C6.52686 5.30778 6.56289 5.32812 6.60184 5.34087C6.64079 5.35363 6.68187 5.35855 6.72273 5.35535C6.76358 5.35215 6.8034 5.3409 6.83989 5.32224Z" fill="white"/>
<path d="M7.8124 7.01798C7.89691 6.97535 7.96689 6.90862 8.01348 6.82623C8.06007 6.74383 8.08119 6.64948 8.07416 6.55508C8.06714 6.46069 8.03228 6.37049 7.974 6.29591C7.91572 6.22132 7.83664 6.16569 7.74674 6.13604C7.65685 6.10639 7.56019 6.10406 7.46897 6.12935C7.37775 6.15463 7.29608 6.20639 7.23428 6.27808C7.17247 6.34978 7.13331 6.43818 7.12175 6.53213C7.11018 6.62608 7.12673 6.72134 7.1693 6.80589C7.19758 6.86206 7.23665 6.9121 7.28429 6.95316C7.33192 6.99422 7.38718 7.0255 7.4469 7.0452C7.50662 7.06489 7.56964 7.07263 7.63236 7.06796C7.69507 7.06329 7.75625 7.04631 7.8124 7.01798Z" fill="white"/>
<path d="M4.5398 8.18427C4.60499 8.22713 4.68142 8.2497 4.75944 8.24911C4.83745 8.24853 4.91354 8.22481 4.97808 8.18097C5.04261 8.13713 5.09269 8.07513 5.12198 8.00281C5.15127 7.9305 5.15845 7.85113 5.14261 7.77473C5.12677 7.69834 5.08863 7.62836 5.03301 7.57365C4.9774 7.51894 4.9068 7.48195 4.83015 7.46738C4.75351 7.4528 4.67426 7.46128 4.60244 7.49176C4.53062 7.52223 4.46945 7.57332 4.42668 7.63857C4.36939 7.72596 4.34913 7.83251 4.37033 7.93482C4.39154 8.03714 4.45249 8.12685 4.5398 8.18427Z" fill="white"/>
<path d="M5.12268 10.4671C5.02818 10.4617 4.93422 10.4845 4.85268 10.5326C4.77114 10.5807 4.70567 10.6518 4.66456 10.7371C4.62345 10.8223 4.60854 10.9178 4.6217 11.0116C4.63487 11.1053 4.67553 11.193 4.73855 11.2636C4.80156 11.3343 4.8841 11.3846 4.97572 11.4084C5.06735 11.4321 5.16395 11.4281 5.25332 11.3969C5.3427 11.3658 5.42082 11.3088 5.47782 11.2333C5.53483 11.1577 5.56815 11.0669 5.57358 10.9724C5.58073 10.8457 5.53726 10.7212 5.45271 10.6264C5.36817 10.5317 5.24946 10.4744 5.12268 10.4671Z" fill="white"/>
<path d="M4.59217 13.6852C4.52257 13.7204 4.46497 13.7754 4.42663 13.8433C4.3883 13.9112 4.37096 13.989 4.37681 14.0667C4.38265 14.1445 4.41142 14.2188 4.45947 14.2802C4.50753 14.3416 4.57271 14.3874 4.64678 14.4118C4.72086 14.4361 4.80049 14.438 4.87563 14.4171C4.95076 14.3962 5.01801 14.3536 5.06889 14.2945C5.11977 14.2354 5.15198 14.1625 5.16146 14.0851C5.17094 14.0077 5.15726 13.9292 5.12215 13.8596C5.09882 13.8133 5.0666 13.7721 5.02734 13.7383C4.98807 13.7045 4.94252 13.6788 4.8933 13.6626C4.84408 13.6464 4.79215 13.64 4.74048 13.6439C4.68881 13.6478 4.63841 13.6618 4.59217 13.6852Z" fill="white"/>
<path d="M6.45288 9.4778C6.54609 9.53889 6.65532 9.57097 6.76676 9.56998C6.87819 9.56899 6.98684 9.53498 7.07895 9.47224C7.17106 9.40951 7.2425 9.32088 7.28424 9.21754C7.32598 9.11421 7.33614 9.00082 7.31344 8.89172C7.29074 8.78261 7.2362 8.68268 7.15671 8.60457C7.07722 8.52646 6.97635 8.47368 6.86687 8.45289C6.75738 8.4321 6.64419 8.44424 6.5416 8.48778C6.43901 8.53132 6.35164 8.6043 6.29053 8.69749C6.24987 8.75936 6.22182 8.82864 6.20798 8.90137C6.19413 8.9741 6.19477 9.04884 6.20985 9.12132C6.22493 9.1938 6.25416 9.2626 6.29586 9.32377C6.33756 9.38494 6.39092 9.43728 6.45288 9.4778Z" fill="white"/>
<path d="M12.356 6.98028C12.4354 7.03205 12.5283 7.05912 12.6231 7.05809C12.7178 7.05705 12.8101 7.02794 12.8883 6.97445C12.9666 6.92096 13.0271 6.84548 13.0625 6.75755C13.0978 6.66963 13.1063 6.5732 13.0868 6.48047C13.0673 6.38774 13.0208 6.30286 12.9531 6.23656C12.8854 6.17027 12.7996 6.12553 12.7064 6.10801C12.6133 6.09048 12.5171 6.10096 12.4299 6.13812C12.3428 6.17527 12.2686 6.23744 12.2167 6.31675C12.1822 6.36943 12.1584 6.42841 12.1467 6.4903C12.1351 6.5522 12.1357 6.61579 12.1486 6.67743C12.1616 6.73907 12.1866 6.79755 12.2222 6.84952C12.2577 6.90149 12.3032 6.94592 12.356 6.98028Z" fill="white"/>
<path d="M13.3385 5.28977C13.3898 5.3234 13.4499 5.34105 13.5112 5.3405C13.5726 5.33995 13.6324 5.32122 13.683 5.28668C13.7337 5.25213 13.773 5.20333 13.796 5.14645C13.8189 5.08957 13.8245 5.02716 13.8119 4.96712C13.7994 4.90708 13.7693 4.8521 13.7255 4.80915C13.6818 4.7662 13.6262 4.73721 13.5659 4.72583C13.5057 4.71446 13.4434 4.72121 13.387 4.74525C13.3305 4.76929 13.2825 4.80952 13.2489 4.86086C13.204 4.92963 13.1882 5.01343 13.205 5.09385C13.2218 5.17427 13.2698 5.24474 13.3385 5.28977Z" fill="white"/>
<path d="M12.4314 9.97218C12.3058 9.96496 12.1799 9.98256 12.061 10.024C11.9421 10.0654 11.8326 10.1298 11.7386 10.2136C11.5488 10.3828 11.434 10.6204 11.4194 10.8743C11.4048 11.1281 11.4917 11.3773 11.6608 11.5671C11.83 11.7569 12.0676 11.8717 12.3215 11.8863C12.3398 11.8863 12.3586 11.8863 12.377 11.8863C12.5619 11.8862 12.7428 11.8326 12.898 11.732C13.0531 11.6314 13.1758 11.4881 13.2513 11.3193C13.3268 11.1505 13.3519 10.9635 13.3235 10.7808C13.2951 10.5981 13.2145 10.4275 13.0913 10.2895C13.0079 10.1955 12.9066 10.119 12.7933 10.0645C12.68 10.01 12.557 9.97862 12.4314 9.97218Z" fill="white"/>
<path d="M8.12715 9.41129C8.20671 9.57024 8.32906 9.70382 8.48043 9.79699C8.6318 9.89016 8.80617 9.93923 8.98392 9.93866C9.14779 9.9387 9.30894 9.89674 9.45198 9.81678C9.59503 9.73683 9.71519 9.62155 9.80101 9.48194C9.88684 9.34234 9.93545 9.18307 9.94221 9.01934C9.94897 8.85561 9.91366 8.69287 9.83965 8.54667C9.75953 8.38844 9.63695 8.25565 9.48562 8.16315C9.3343 8.07066 9.16022 8.02212 8.98287 8.02297C8.8195 8.02324 8.65891 8.06526 8.51634 8.14502C8.37377 8.22478 8.25393 8.33965 8.16821 8.47872C8.08249 8.61779 8.03373 8.77646 8.02654 8.93967C8.01935 9.10288 8.05398 9.26522 8.12715 9.41129Z" fill="white"/>
<path d="M15.6422 8.18322C15.7119 8.14809 15.7695 8.09312 15.8079 8.02524C15.8462 7.95737 15.8636 7.87965 15.8578 7.80189C15.8521 7.72414 15.8233 7.64984 15.7753 7.5884C15.7273 7.52696 15.6622 7.48112 15.5882 7.45668C15.5141 7.43225 15.4345 7.43031 15.3594 7.45111C15.2842 7.47191 15.2169 7.51452 15.166 7.57356C15.1151 7.63259 15.0828 7.7054 15.0732 7.78278C15.0636 7.86016 15.0772 7.93864 15.1123 8.0083C15.1594 8.10173 15.2417 8.17263 15.3411 8.20543C15.4404 8.23823 15.5488 8.23024 15.6422 8.18322Z" fill="white"/>
<path d="M13.2118 8.48853C13.1122 8.53867 13.0298 8.61719 12.9749 8.71417C12.92 8.81116 12.895 8.92225 12.9033 9.03339C12.9115 9.14454 12.9525 9.25075 13.0211 9.3386C13.0897 9.42644 13.1828 9.49198 13.2886 9.52691C13.3944 9.56185 13.5082 9.56462 13.6156 9.53487C13.723 9.50512 13.8192 9.44418 13.892 9.35978C13.9648 9.27537 14.0109 9.17128 14.0245 9.06066C14.0381 8.95005 14.0186 8.83788 13.9685 8.73834C13.9353 8.6722 13.8893 8.61326 13.8333 8.5649C13.7772 8.51654 13.7122 8.47971 13.6419 8.4565C13.5716 8.4333 13.4975 8.42419 13.4237 8.42968C13.3498 8.43518 13.2778 8.45518 13.2118 8.48853Z" fill="white"/>
<path d="M10.0811 5.14523C10.159 5.14967 10.2364 5.13091 10.3036 5.09132C10.3708 5.05173 10.4248 4.9931 10.4587 4.92283C10.4926 4.85257 10.5049 4.77384 10.494 4.69659C10.4831 4.61934 10.4496 4.54705 10.3976 4.48887C10.3457 4.43068 10.2776 4.38921 10.2021 4.36971C10.1266 4.3502 10.047 4.35353 9.97332 4.37928C9.89969 4.40503 9.83534 4.45204 9.78843 4.51437C9.74152 4.57669 9.71414 4.65153 9.70977 4.72941C9.70391 4.83378 9.73973 4.93621 9.80935 5.01418C9.87897 5.09215 9.97671 5.13929 10.0811 5.14523Z" fill="white"/>
<path d="M10.0769 7.62705C10.1881 7.63328 10.2987 7.6064 10.3947 7.5498C10.4907 7.4932 10.5677 7.40942 10.6161 7.30905C10.6644 7.20868 10.682 7.09622 10.6664 6.98589C10.6509 6.87556 10.603 6.77231 10.5288 6.68919C10.4546 6.60607 10.3575 6.54681 10.2496 6.5189C10.1417 6.49098 10.028 6.49568 9.9228 6.53238C9.8176 6.56908 9.72565 6.63614 9.65855 6.7251C9.59146 6.81405 9.55224 6.92089 9.54585 7.03212C9.53742 7.18143 9.58862 7.32797 9.6882 7.43953C9.78778 7.55109 9.92758 7.61854 10.0769 7.62705Z" fill="white"/>
<path d="M7.02371 13.3794C7.12324 13.3292 7.20565 13.2506 7.26052 13.1536C7.31539 13.0566 7.34025 12.9455 7.33197 12.8343C7.32369 12.7232 7.28263 12.617 7.21398 12.5292C7.14534 12.4413 7.0522 12.3759 6.94633 12.341C6.84047 12.3061 6.72664 12.3034 6.61924 12.3332C6.51185 12.3631 6.41571 12.4241 6.34299 12.5085C6.27027 12.593 6.22423 12.6972 6.2107 12.8078C6.19716 12.9184 6.21674 13.0306 6.26696 13.1301C6.33428 13.2635 6.45181 13.3647 6.59372 13.4114C6.73563 13.4582 6.8903 13.4466 7.02371 13.3794Z" fill="white"/>
<path d="M10.4409 8.44926C10.324 8.62761 10.2699 8.83985 10.2873 9.05238C10.3046 9.26491 10.3923 9.46559 10.5365 9.62267C10.6807 9.77974 10.8732 9.88424 11.0835 9.91962C11.2937 9.955 11.5098 9.91923 11.6975 9.81799C11.8851 9.71675 12.0337 9.55582 12.1196 9.36065C12.2055 9.16549 12.2239 8.94725 12.1718 8.74047C12.1197 8.53369 12.0002 8.35019 11.8321 8.219C11.664 8.08781 11.4569 8.01643 11.2437 8.01616C11.0844 8.01605 10.9277 8.05558 10.7875 8.13119C10.6473 8.2068 10.5282 8.31611 10.4409 8.44926Z" fill="white"/>
<path d="M12.1073 12.4571C12.0305 12.3049 11.9145 12.1759 11.7712 12.0834C11.6279 11.9909 11.4625 11.9384 11.2922 11.9312C11.1218 11.9239 10.9526 11.9623 10.802 12.0423C10.6514 12.1223 10.5249 12.241 10.4354 12.3862C10.346 12.5314 10.297 12.6979 10.2934 12.8683C10.2898 13.0388 10.3317 13.2072 10.4149 13.3561C10.498 13.5049 10.6194 13.6289 10.7665 13.7152C10.9136 13.8015 11.081 13.847 11.2515 13.847C11.4016 13.846 11.5493 13.8101 11.6831 13.7423C11.9094 13.6277 12.0811 13.4282 12.1606 13.1873C12.2401 12.9465 12.2209 12.6839 12.1073 12.4571Z" fill="white"/>
<path d="M13.7821 12.3901C13.6889 12.3289 13.5797 12.2968 13.4682 12.2977C13.3568 12.2986 13.2481 12.3325 13.156 12.3952C13.0638 12.4579 12.9923 12.5465 12.9505 12.6498C12.9087 12.7531 12.8984 12.8665 12.9211 12.9756C12.9437 13.0847 12.9982 13.1847 13.0776 13.2629C13.1571 13.341 13.2579 13.3939 13.3674 13.4147C13.4769 13.4356 13.5901 13.4235 13.6927 13.38C13.7953 13.3365 13.8827 13.2636 13.9439 13.1704C14.0256 13.0454 14.0545 12.8931 14.0242 12.7468C13.9938 12.6006 13.9068 12.4723 13.7821 12.3901Z" fill="white"/>
<path d="M15.6171 10.9504C15.6224 10.856 15.5996 10.762 15.5516 10.6805C15.5035 10.5989 15.4324 10.5334 15.3471 10.4923C15.2619 10.4512 15.1663 10.4363 15.0726 10.4495C14.9789 10.4626 14.8912 10.5033 14.8205 10.5663C14.7499 10.6293 14.6996 10.7119 14.6758 10.8035C14.6521 10.8951 14.6561 10.9917 14.6872 11.0811C14.7184 11.1705 14.7754 11.2486 14.8509 11.3056C14.9265 11.3626 15.0172 11.3959 15.1117 11.4014C15.2385 11.4085 15.363 11.365 15.4577 11.2805C15.5525 11.1959 15.6098 11.0772 15.6171 10.9504Z" fill="white"/>
<path d="M16.9431 10.6095C16.8819 10.606 16.821 10.6207 16.7682 10.6518C16.7153 10.6829 16.6728 10.7289 16.6462 10.7841C16.6195 10.8393 16.6098 10.9012 16.6183 10.962C16.6267 11.0227 16.653 11.0795 16.6938 11.1253C16.7346 11.1711 16.7881 11.2037 16.8475 11.2191C16.9068 11.2345 16.9694 11.232 17.0273 11.2118C17.0852 11.1916 17.1358 11.1547 17.1728 11.1058C17.2097 11.0569 17.2313 10.9981 17.2348 10.9368C17.2394 10.8548 17.2113 10.7743 17.1566 10.7129C17.1019 10.6516 17.0252 10.6144 16.9431 10.6095Z" fill="white"/>
<path d="M15.6946 13.6836C15.6294 13.6409 15.5529 13.6185 15.475 13.6192C15.397 13.6199 15.321 13.6437 15.2565 13.6876C15.1921 13.7315 15.1421 13.7936 15.1129 13.8659C15.0837 13.9382 15.0766 14.0175 15.0925 14.0939C15.1084 14.1702 15.1465 14.2401 15.2021 14.2948C15.2577 14.3494 15.3283 14.3864 15.4049 14.4009C15.4815 14.4155 15.5608 14.407 15.6325 14.3766C15.7043 14.3461 15.7655 14.2951 15.8083 14.2299C15.8367 14.1865 15.8563 14.138 15.866 14.0871C15.8756 14.0362 15.8752 13.9839 15.8646 13.9332C15.8541 13.8825 15.8336 13.8343 15.8045 13.7915C15.7753 13.7487 15.738 13.712 15.6946 13.6836Z" fill="white"/>
<path d="M6.89645 16.5781C6.84519 16.5445 6.78511 16.5268 6.7238 16.5273C6.66249 16.5278 6.60271 16.5465 6.55201 16.581C6.50131 16.6155 6.46198 16.6642 6.43897 16.721C6.41597 16.7779 6.41034 16.8402 6.42279 16.9003C6.43523 16.9603 6.4652 17.0153 6.5089 17.0583C6.5526 17.1013 6.60807 17.1304 6.66829 17.1419C6.72852 17.1534 6.7908 17.1467 6.84726 17.1228C6.90371 17.0989 6.95182 17.0588 6.98548 17.0076C7.00784 16.9735 7.02328 16.9354 7.03091 16.8954C7.03853 16.8554 7.0382 16.8143 7.02994 16.7744C7.02167 16.7345 7.00562 16.6967 6.98272 16.663C6.95982 16.6293 6.9305 16.6005 6.89645 16.5781Z" fill="white"/>
<path d="M13.3945 16.5457C13.3398 16.5733 13.2944 16.6165 13.2642 16.6699C13.234 16.7232 13.2203 16.7844 13.2249 16.8455C13.2294 16.9067 13.252 16.9651 13.2898 17.0134C13.3275 17.0617 13.3788 17.0978 13.437 17.117C13.4953 17.1362 13.5579 17.1377 13.617 17.1213C13.6761 17.1049 13.729 17.0713 13.769 17.0248C13.809 16.9784 13.8343 16.9211 13.8418 16.8602C13.8492 16.7993 13.8385 16.7376 13.8109 16.6829C13.7926 16.6465 13.7673 16.6141 13.7365 16.5875C13.7056 16.5609 13.6698 16.5406 13.6312 16.5279C13.5925 16.5151 13.5517 16.5101 13.5111 16.5132C13.4705 16.5162 13.4309 16.5273 13.3945 16.5457Z" fill="white"/>
<path d="M9.79356 13.4171C9.91044 13.2387 9.9645 13.0264 9.94716 12.8139C9.92982 12.6013 9.84208 12.4006 9.69784 12.2436C9.55359 12.0865 9.36107 11.982 9.15077 11.9467C8.94046 11.9113 8.72437 11.9472 8.53671 12.0485C8.34905 12.1498 8.20054 12.3108 8.11468 12.506C8.02883 12.7012 8.01054 12.9195 8.0627 13.1262C8.11487 13.333 8.23451 13.5165 8.4027 13.6476C8.57088 13.7787 8.77799 13.85 8.99125 13.8502C9.15051 13.8507 9.30737 13.8114 9.44752 13.7357C9.58766 13.6601 9.70663 13.5505 9.79356 13.4171Z" fill="white"/>
<path d="M7.87839 14.8882C7.79918 14.8363 7.70639 14.8092 7.61174 14.8101C7.5171 14.811 7.42485 14.8399 7.34665 14.8933C7.26845 14.9466 7.20782 15.0219 7.17242 15.1097C7.13702 15.1975 7.12844 15.2938 7.14776 15.3864C7.16708 15.4791 7.21344 15.5639 7.28098 15.6302C7.34851 15.6966 7.43419 15.7414 7.52718 15.759C7.62018 15.7766 7.71631 15.7663 7.80343 15.7293C7.89055 15.6923 7.96475 15.6303 8.01664 15.5512C8.08615 15.4449 8.11064 15.3154 8.08471 15.191C8.05879 15.0667 7.98458 14.9578 7.87839 14.8882Z" fill="white"/>
<path d="M10.113 16.7227C10.0352 16.7182 9.95774 16.737 9.89053 16.7766C9.82334 16.8161 9.76938 16.8747 9.73548 16.945C9.70158 17.0152 9.68927 17.0939 9.7001 17.1711C9.71093 17.2484 9.74441 17.3207 9.79632 17.3789C9.84822 17.4371 9.91622 17.4786 9.99171 17.4981C10.0672 17.5177 10.1468 17.5144 10.2204 17.4888C10.2941 17.4631 10.3584 17.4162 10.4054 17.3539C10.4524 17.2917 10.4798 17.2169 10.4843 17.139C10.4873 17.0873 10.48 17.0355 10.463 16.9866C10.4459 16.9377 10.4194 16.8926 10.3849 16.8539C10.3505 16.8152 10.3087 16.7838 10.262 16.7612C10.2154 16.7387 10.1647 16.7256 10.113 16.7227Z" fill="white"/>
<path d="M10.1172 14.2414C10.0059 14.2346 9.89502 14.261 9.79871 14.3173C9.70241 14.3736 9.62497 14.4572 9.57621 14.5575C9.52745 14.6579 9.50956 14.7704 9.52481 14.8809C9.54006 14.9914 9.58777 15.0949 9.66188 15.1782C9.73599 15.2616 9.83318 15.3211 9.94113 15.3492C10.0491 15.3773 10.1629 15.3727 10.2683 15.336C10.3736 15.2994 10.4657 15.2322 10.5329 15.1432C10.6001 15.0541 10.6393 14.9471 10.6456 14.8358C10.6542 14.6869 10.6034 14.5407 10.5043 14.4293C10.4053 14.3179 10.266 14.2503 10.1172 14.2414Z" fill="white"/>
<path d="M12.422 14.8499C12.3375 14.8928 12.2675 14.9599 12.2211 15.0425C12.1746 15.1252 12.1537 15.2198 12.1611 15.3143C12.1684 15.4089 12.2036 15.4991 12.2623 15.5736C12.3209 15.6481 12.4004 15.7036 12.4905 15.7329C12.5807 15.7623 12.6775 15.7642 12.7688 15.7385C12.8601 15.7127 12.9417 15.6605 13.0032 15.5884C13.0648 15.5163 13.1036 15.4275 13.1147 15.3334C13.1258 15.2392 13.1087 15.1439 13.0656 15.0594C13.0372 15.0033 12.9979 14.9534 12.9502 14.9126C12.9024 14.8717 12.8471 14.8406 12.7873 14.8212C12.7275 14.8017 12.6645 14.7942 12.6018 14.7992C12.5391 14.8041 12.478 14.8214 12.422 14.8499Z" fill="white"/>
</svg>
