<svg width="60" height="61" viewBox="0 0 60 61" fill="none" xmlns="http://www.w3.org/2000/svg">
<rect y="0.5" width="60" height="60" rx="30" fill="#ECEFF3"/>
<path d="M25.625 33.8333C25.625 35.4442 26.9308 36.75 28.5417 36.75H31.25C32.9759 36.75 34.375 35.3509 34.375 33.625C34.375 31.8991 32.9759 30.5 31.25 30.5H28.75C27.0241 30.5 25.625 29.1009 25.625 27.375C25.625 25.6491 27.0241 24.25 28.75 24.25H31.4583C33.0692 24.25 34.375 25.5558 34.375 27.1667M30 22.375V24.25M30 36.75V38.625M42.5 30.5C42.5 37.4036 36.9036 43 30 43C23.0964 43 17.5 37.4036 17.5 30.5C17.5 23.5964 23.0964 18 30 18C36.9036 18 42.5 23.5964 42.5 30.5Z" stroke="#1A1B25" stroke-width="2.5" stroke-linecap="round" stroke-linejoin="round"/>
</svg>
