<svg width="60" height="61" viewBox="0 0 60 61" fill="none" xmlns="http://www.w3.org/2000/svg">
<rect y="0.5" width="60" height="60" rx="30" fill="#ECEFF3"/>
<rect x="15" y="15.5" width="30" height="30" rx="15" fill="#0033AD"/>
<path d="M25.351 30.5409C25.3292 30.9221 25.4595 31.2965 25.7134 31.5816C25.9674 31.8668 26.3241 32.0395 26.7053 32.0618H26.7839C27.0646 32.0614 27.3391 31.9789 27.5735 31.8244C27.8079 31.6699 27.9919 31.4501 28.1029 31.1922C28.2138 30.9343 28.2468 30.6496 28.1978 30.3732C28.1488 30.0968 28.0199 29.8407 27.827 29.6367C27.6342 29.4327 27.3858 29.2896 27.1126 29.2251C26.8393 29.1606 26.5532 29.1775 26.2895 29.2738C26.0258 29.37 25.796 29.5414 25.6285 29.7667C25.461 29.992 25.3632 30.2614 25.3471 30.5417L25.351 30.5409Z" fill="white"/>
<path d="M19.9904 30.1764C19.8988 30.1713 19.8077 30.1935 19.7286 30.2401C19.6496 30.2867 19.5861 30.3558 19.5463 30.4385C19.5064 30.5211 19.492 30.6138 19.5048 30.7047C19.5176 30.7956 19.557 30.8806 19.6182 30.9491C19.6793 31.0176 19.7593 31.0664 19.8482 31.0894C19.9371 31.1124 20.0308 31.1086 20.1174 31.0783C20.2041 31.0481 20.2799 30.9928 20.3351 30.9196C20.3904 30.8463 20.4227 30.7583 20.428 30.6666C20.4316 30.6057 20.4231 30.5446 20.4031 30.4869C20.383 30.4293 20.3518 30.3761 20.3111 30.3306C20.2704 30.285 20.2212 30.248 20.1662 30.2215C20.1111 30.1951 20.0514 30.1797 19.9904 30.1764Z" fill="white"/>
<path d="M25.2599 22.1976C25.3415 22.1557 25.4089 22.0906 25.4536 22.0104C25.4983 21.9303 25.5183 21.8387 25.5111 21.7472C25.5038 21.6558 25.4697 21.5685 25.413 21.4964C25.3562 21.4242 25.2794 21.3705 25.1922 21.342C25.105 21.3134 25.0113 21.3113 24.9229 21.3359C24.8345 21.3604 24.7553 21.4106 24.6954 21.4801C24.6354 21.5496 24.5974 21.6352 24.586 21.7263C24.5746 21.8173 24.5905 21.9097 24.6315 21.9918C24.6591 22.0467 24.6972 22.0957 24.7438 22.1358C24.7904 22.1759 24.8444 22.2064 24.9028 22.2255C24.9613 22.2447 25.0229 22.2521 25.0842 22.2473C25.1455 22.2425 25.2052 22.2256 25.2599 22.1976Z" fill="white"/>
<path d="M26.7187 24.7412C26.8455 24.6773 26.9504 24.5772 27.0203 24.4536C27.0902 24.33 27.1219 24.1884 27.1113 24.0469C27.1008 23.9053 27.0485 23.77 26.9611 23.6581C26.8737 23.5462 26.755 23.4628 26.6202 23.4183C26.4854 23.3738 26.3404 23.3703 26.2035 23.4083C26.0667 23.4462 25.9442 23.5238 25.8515 23.6314C25.7588 23.7389 25.7001 23.8715 25.6827 24.0124C25.6654 24.1533 25.6902 24.2962 25.754 24.4231C25.7965 24.5073 25.8551 24.5824 25.9265 24.644C25.998 24.7056 26.0808 24.7525 26.1704 24.782C26.26 24.8116 26.3545 24.8232 26.4486 24.8162C26.5427 24.8092 26.6345 24.7837 26.7187 24.7412Z" fill="white"/>
<path d="M21.8098 26.4906C21.9076 26.5549 22.0222 26.5888 22.1392 26.5879C22.2563 26.587 22.3704 26.5515 22.4672 26.4857C22.564 26.4199 22.6391 26.3269 22.6831 26.2185C22.727 26.11 22.7378 25.9909 22.714 25.8763C22.6902 25.7617 22.633 25.6568 22.5496 25.5747C22.4662 25.4926 22.3603 25.4372 22.2453 25.4153C22.1303 25.3934 22.0115 25.4062 21.9037 25.4519C21.796 25.4976 21.7043 25.5742 21.6401 25.6721C21.5542 25.8032 21.5238 25.963 21.5556 26.1165C21.5874 26.2699 21.6788 26.4045 21.8098 26.4906Z" fill="white"/>
<path d="M22.6841 29.9148C22.5424 29.9068 22.4014 29.9411 22.2791 30.0131C22.1568 30.0852 22.0586 30.1919 21.9969 30.3198C21.9353 30.4477 21.9129 30.591 21.9326 30.7316C21.9524 30.8722 22.0134 31.0038 22.1079 31.1097C22.2024 31.2156 22.3262 31.2912 22.4637 31.3268C22.6011 31.3624 22.746 31.3564 22.8801 31.3097C23.0141 31.2629 23.1313 31.1775 23.2168 31.0641C23.3023 30.9508 23.3523 30.8146 23.3605 30.6729C23.3712 30.4827 23.306 30.296 23.1792 30.1539C23.0523 30.0118 22.8743 29.9258 22.6841 29.9148Z" fill="white"/>
<path d="M21.8883 34.7421C21.7839 34.7948 21.6975 34.8773 21.64 34.9792C21.5825 35.0811 21.5565 35.1977 21.5653 35.3143C21.5741 35.431 21.6172 35.5424 21.6893 35.6345C21.7614 35.7266 21.8592 35.7953 21.9703 35.8319C22.0814 35.8684 22.2008 35.8712 22.3135 35.8399C22.4262 35.8086 22.5271 35.7446 22.6034 35.6559C22.6797 35.5673 22.7281 35.458 22.7423 35.3419C22.7565 35.2258 22.736 35.1081 22.6833 35.0036C22.6483 34.9342 22.6 34.8724 22.5411 34.8217C22.4822 34.771 22.4139 34.7324 22.34 34.7081C22.2662 34.6838 22.1883 34.6743 22.1108 34.6801C22.0333 34.686 21.9577 34.707 21.8883 34.7421Z" fill="white"/>
<path d="M24.6794 28.4309C24.8192 28.5226 24.9831 28.5707 25.1502 28.5692C25.3174 28.5677 25.4803 28.5167 25.6185 28.4226C25.7567 28.3285 25.8638 28.1955 25.9264 28.0405C25.989 27.8856 26.0043 27.7155 25.9702 27.5518C25.9362 27.3881 25.8544 27.2383 25.7351 27.1211C25.6159 27.0039 25.4646 26.9247 25.3004 26.8936C25.1362 26.8624 24.9664 26.8806 24.8125 26.9459C24.6586 27.0112 24.5275 27.1207 24.4359 27.2605C24.3749 27.3533 24.3328 27.4572 24.3121 27.5663C24.2913 27.6754 24.2922 27.7875 24.3149 27.8962C24.3375 28.0049 24.3813 28.1081 24.4439 28.1999C24.5064 28.2916 24.5865 28.3702 24.6794 28.4309Z" fill="white"/>
<path d="M33.5341 24.6847C33.6532 24.7623 33.7926 24.8029 33.9347 24.8014C34.0768 24.7998 34.2153 24.7561 34.3326 24.6759C34.4499 24.5957 34.5408 24.4825 34.5938 24.3506C34.6468 24.2187 34.6595 24.074 34.6303 23.9349C34.6011 23.7958 34.5313 23.6685 34.4297 23.5691C34.3282 23.4696 34.1994 23.4025 34.0597 23.3762C33.9201 23.35 33.7757 23.3657 33.645 23.4214C33.5142 23.4771 33.4029 23.5704 33.3252 23.6894C33.2734 23.7684 33.2377 23.8569 33.2202 23.9497C33.2027 24.0425 33.2036 24.1379 33.2231 24.2304C33.2425 24.3228 33.2799 24.4106 33.3333 24.4885C33.3867 24.5665 33.4549 24.6331 33.5341 24.6847Z" fill="white"/>
<path d="M35.0078 22.1489C35.0848 22.1993 35.1749 22.2258 35.2669 22.225C35.3589 22.2242 35.4486 22.1961 35.5247 22.1442C35.6007 22.0924 35.6596 22.0192 35.694 21.9339C35.7285 21.8486 35.7368 21.755 35.718 21.6649C35.6992 21.5748 35.6541 21.4924 35.5884 21.428C35.5227 21.3635 35.4394 21.32 35.349 21.303C35.2586 21.2859 35.1652 21.2961 35.0805 21.3321C34.9959 21.3682 34.9238 21.4285 34.8735 21.5055C34.8061 21.6087 34.7823 21.7344 34.8075 21.855C34.8327 21.9756 34.9048 22.0813 35.0078 22.1489Z" fill="white"/>
<path d="M33.6472 29.1725C33.4587 29.1617 33.2699 29.1881 33.0916 29.2502C32.9133 29.3124 32.7489 29.409 32.608 29.5347C32.3233 29.7884 32.151 30.1449 32.1292 30.5256C32.1073 30.9064 32.2376 31.2802 32.4913 31.5649C32.7451 31.8496 33.1015 32.0218 33.4823 32.0437C33.5098 32.0437 33.5381 32.0437 33.5655 32.0437C33.8429 32.0436 34.1143 31.9632 34.347 31.8123C34.5797 31.6614 34.7638 31.4464 34.8771 31.1932C34.9903 30.94 35.0279 30.6594 34.9853 30.3854C34.9428 30.1113 34.8218 29.8554 34.637 29.6485C34.5119 29.5075 34.36 29.3927 34.19 29.311C34.0201 29.2292 33.8356 29.1822 33.6472 29.1725Z" fill="white"/>
<path d="M27.1908 28.3312C27.3101 28.5696 27.4937 28.77 27.7207 28.9097C27.9478 29.0495 28.2093 29.1231 28.476 29.1222C28.7218 29.1223 28.9635 29.0593 29.1781 28.9394C29.3926 28.8195 29.5729 28.6466 29.7016 28.4371C29.8303 28.2277 29.9033 27.9888 29.9134 27.7432C29.9235 27.4976 29.8706 27.2535 29.7596 27.0342C29.6394 26.7969 29.4555 26.5977 29.2285 26.459C29.0015 26.3202 28.7404 26.2474 28.4744 26.2487C28.2293 26.2491 27.9885 26.3121 27.7746 26.4318C27.5607 26.5514 27.381 26.7237 27.2524 26.9323C27.1238 27.1409 27.0507 27.3789 27.0399 27.6237C27.0291 27.8686 27.0811 28.1121 27.1908 28.3312Z" fill="white"/>
<path d="M38.4635 26.4891C38.5679 26.4364 38.6543 26.3539 38.7119 26.2521C38.7694 26.1503 38.7955 26.0337 38.7868 25.9171C38.7782 25.8004 38.7351 25.689 38.6631 25.5968C38.5911 25.5047 38.4934 25.4359 38.3823 25.3993C38.2713 25.3626 38.1518 25.3597 38.0391 25.3909C37.9264 25.4221 37.8255 25.486 37.7491 25.5746C37.6727 25.6631 37.6243 25.7723 37.6099 25.8884C37.5956 26.0045 37.6159 26.1222 37.6685 26.2267C37.7392 26.3668 37.8626 26.4732 38.0117 26.5224C38.1607 26.5716 38.3232 26.5596 38.4635 26.4891Z" fill="white"/>
<path d="M34.8177 26.947C34.6684 27.0222 34.5447 27.14 34.4624 27.2855C34.38 27.431 34.3426 27.5976 34.355 27.7643C34.3673 27.931 34.4288 28.0904 34.5317 28.2221C34.6346 28.3539 34.7742 28.4522 34.933 28.5046C35.0917 28.557 35.2624 28.5612 35.4235 28.5165C35.5847 28.4719 35.7289 28.3805 35.8381 28.2539C35.9472 28.1273 36.0164 27.9711 36.0368 27.8052C36.0573 27.6393 36.028 27.4711 35.9528 27.3217C35.903 27.2225 35.8341 27.1341 35.75 27.0616C35.6659 26.989 35.5684 26.9338 35.463 26.899C35.3575 26.8642 35.2463 26.8505 35.1356 26.8588C35.0248 26.867 34.9168 26.897 34.8177 26.947Z" fill="white"/>
<path d="M30.1217 21.9321C30.2385 21.9387 30.3547 21.9106 30.4555 21.8512C30.5563 21.7918 30.6373 21.7039 30.6881 21.5985C30.7389 21.4931 30.7574 21.375 30.7411 21.2591C30.7248 21.1432 30.6745 21.0348 30.5965 20.9475C30.5186 20.8603 30.4165 20.7981 30.3032 20.7688C30.1899 20.7395 30.0705 20.7445 29.9601 20.7832C29.8496 20.8218 29.7531 20.8923 29.6827 20.9858C29.6124 21.0793 29.5713 21.1915 29.5647 21.3084C29.5559 21.4649 29.6097 21.6185 29.7141 21.7355C29.8185 21.8525 29.9651 21.9232 30.1217 21.9321Z" fill="white"/>
<path d="M30.1154 25.6548C30.2823 25.6642 30.4482 25.6238 30.5921 25.5389C30.7361 25.454 30.8516 25.3284 30.9242 25.1778C30.9967 25.0272 31.023 24.8586 30.9997 24.6931C30.9764 24.5276 30.9046 24.3727 30.7933 24.248C30.682 24.1233 30.5363 24.0344 30.3745 23.9926C30.2127 23.9507 30.0421 23.9577 29.8843 24.0128C29.7265 24.0679 29.5886 24.1685 29.4879 24.3019C29.3873 24.4353 29.3284 24.5956 29.3189 24.7624C29.3062 24.9864 29.383 25.2062 29.5324 25.3735C29.6817 25.5409 29.8915 25.642 30.1154 25.6548Z" fill="white"/>
<path d="M25.5356 34.2833C25.6849 34.208 25.8086 34.0902 25.8909 33.9446C25.9732 33.7991 26.0105 33.6325 25.998 33.4657C25.9856 33.299 25.924 33.1397 25.8211 33.008C25.7181 32.8763 25.5784 32.778 25.4196 32.7257C25.2608 32.6734 25.09 32.6694 24.929 32.7141C24.7679 32.7588 24.6237 32.8504 24.5146 32.9771C24.4055 33.1038 24.3364 33.26 24.3161 33.4259C24.2958 33.5919 24.3252 33.7601 24.4005 33.9094C24.5015 34.1094 24.6778 34.2612 24.8907 34.3314C25.1035 34.4015 25.3355 34.3842 25.5356 34.2833Z" fill="white"/>
<path d="M30.6614 26.8881C30.4861 27.1557 30.405 27.474 30.431 27.7928C30.4569 28.1116 30.5885 28.4126 30.8048 28.6482C31.0211 28.8839 31.3098 29.0406 31.6253 29.0937C31.9407 29.1467 32.2648 29.0931 32.5463 28.9412C32.8278 28.7894 33.0506 28.548 33.1795 28.2552C33.3084 27.9625 33.3359 27.6351 33.2578 27.3249C33.1797 27.0148 33.0004 26.7395 32.7482 26.5427C32.496 26.3459 32.1855 26.2389 31.8656 26.2385C31.6267 26.2383 31.3916 26.2976 31.1813 26.411C30.9711 26.5244 30.7924 26.6884 30.6614 26.8881Z" fill="white"/>
<path d="M33.161 32.8999C33.0458 32.6715 32.8718 32.478 32.6569 32.3393C32.4419 32.2006 32.1939 32.1218 31.9383 32.111C31.6828 32.1001 31.429 32.1577 31.2031 32.2777C30.9772 32.3976 30.7874 32.5757 30.6533 32.7936C30.5192 33.0114 30.4456 33.261 30.4402 33.5168C30.4347 33.7725 30.4977 34.025 30.6224 34.2483C30.7472 34.4716 30.9292 34.6576 31.1498 34.7871C31.3705 34.9165 31.6216 34.9848 31.8774 34.9848C32.1024 34.9832 32.324 34.9295 32.5247 34.8277C32.8642 34.6558 33.1217 34.3565 33.241 33.9952C33.3602 33.6339 33.3315 33.2401 33.161 32.8999Z" fill="white"/>
<path d="M35.6732 32.7994C35.5334 32.7076 35.3696 32.6594 35.2024 32.6608C35.0353 32.6621 34.8723 32.713 34.734 32.807C34.5958 32.901 34.4885 33.0339 34.4258 33.1889C34.3631 33.3439 34.3477 33.5139 34.3817 33.6776C34.4156 33.8413 34.4973 33.9913 34.6165 34.1085C34.7357 34.2258 34.8869 34.305 35.0512 34.3363C35.2154 34.3676 35.3852 34.3495 35.5391 34.2842C35.693 34.219 35.8242 34.1096 35.9159 33.9699C36.0385 33.7823 36.0818 33.5539 36.0363 33.3345C35.9908 33.1151 35.8602 32.9227 35.6732 32.7994Z" fill="white"/>
<path d="M38.4257 30.6399C38.4337 30.4982 38.3995 30.3572 38.3275 30.2349C38.2554 30.1126 38.1486 30.0144 38.0208 29.9527C37.8929 29.8911 37.7496 29.8687 37.609 29.8884C37.4684 29.9082 37.3368 29.9692 37.2309 30.0637C37.125 30.1582 37.0494 30.282 37.0138 30.4195C36.9782 30.5569 36.9842 30.7018 37.0309 30.8359C37.0777 30.9699 37.1631 31.0871 37.2765 31.1726C37.3898 31.2581 37.5259 31.3081 37.6677 31.3163C37.8579 31.327 38.0445 31.2618 38.1867 31.135C38.3288 31.0081 38.4148 30.8301 38.4257 30.6399Z" fill="white"/>
<path d="M40.4148 30.1285C40.3229 30.1232 40.2316 30.1453 40.1523 30.1919C40.073 30.2385 40.0093 30.3076 39.9693 30.3904C39.9293 30.4733 39.9147 30.5661 39.9275 30.6572C39.9402 30.7483 39.9797 30.8335 40.0408 30.9022C40.102 30.9709 40.1822 31.0198 40.2713 31.0429C40.3603 31.066 40.4542 31.0622 40.541 31.0319C40.6279 31.0017 40.7038 30.9463 40.7592 30.8729C40.8146 30.7995 40.847 30.7113 40.8523 30.6195C40.8592 30.4964 40.817 30.3756 40.735 30.2836C40.653 30.1916 40.5378 30.1358 40.4148 30.1285Z" fill="white"/>
<path d="M38.542 34.7397C38.4442 34.6756 38.3295 34.642 38.2125 34.643C38.0956 34.6441 37.9815 34.6798 37.8849 34.7457C37.7882 34.8115 37.7132 34.9046 37.6694 35.013C37.6256 35.1215 37.615 35.2405 37.6388 35.355C37.6626 35.4695 37.7199 35.5744 37.8033 35.6564C37.8867 35.7384 37.9926 35.7938 38.1075 35.8156C38.2224 35.8375 38.3412 35.8248 38.4489 35.7791C38.5566 35.7334 38.6483 35.6568 38.7125 35.559C38.7551 35.494 38.7845 35.4213 38.799 35.3449C38.8135 35.2686 38.8129 35.1901 38.797 35.114C38.7812 35.0379 38.7505 34.9657 38.7068 34.9015C38.663 34.8373 38.607 34.7823 38.542 34.7397Z" fill="white"/>
<path d="M25.3448 39.0814C25.2679 39.031 25.1777 39.0045 25.0858 39.0052C24.9938 39.006 24.9041 39.034 24.8281 39.0857C24.7521 39.1374 24.693 39.2105 24.6585 39.2958C24.624 39.381 24.6156 39.4746 24.6343 39.5646C24.6529 39.6547 24.6979 39.7372 24.7634 39.8017C24.829 39.8662 24.9122 39.9098 25.0025 39.9271C25.0929 39.9443 25.1863 39.9343 25.271 39.8985C25.3557 39.8626 25.4278 39.8024 25.4783 39.7256C25.5118 39.6745 25.535 39.6174 25.5464 39.5573C25.5579 39.4973 25.5574 39.4357 25.545 39.3758C25.5326 39.316 25.5085 39.2592 25.4742 39.2087C25.4398 39.1582 25.3958 39.1149 25.3448 39.0814Z" fill="white"/>
<path d="M35.0919 39.0327C35.0097 39.0741 34.9417 39.139 34.8964 39.219C34.8511 39.2991 34.8306 39.3908 34.8374 39.4825C34.8442 39.5742 34.8781 39.6619 34.9348 39.7344C34.9914 39.8068 35.0683 39.8609 35.1556 39.8897C35.243 39.9185 35.3369 39.9207 35.4256 39.8961C35.5142 39.8715 35.5935 39.8212 35.6536 39.7515C35.7136 39.6818 35.7516 39.5958 35.7628 39.5045C35.774 39.4132 35.7578 39.3207 35.7164 39.2385C35.689 39.184 35.651 39.1353 35.6048 39.0954C35.5585 39.0555 35.5049 39.0251 35.4468 39.006C35.3888 38.9869 35.3276 38.9794 35.2667 38.984C35.2058 38.9886 35.1464 39.0051 35.0919 39.0327Z" fill="white"/>
<path d="M29.6904 34.3399C29.8658 34.0723 29.9468 33.7539 29.9208 33.4351C29.8948 33.1162 29.7632 32.8152 29.5468 32.5796C29.3305 32.344 29.0417 32.1873 28.7262 32.1343C28.4108 32.0813 28.0866 32.135 27.8051 32.2869C27.5237 32.4389 27.3009 32.6804 27.1721 32.9732C27.0433 33.266 27.0159 33.5934 27.0941 33.9036C27.1724 34.2138 27.3519 34.489 27.6041 34.6857C27.8564 34.8823 28.1671 34.9893 28.487 34.9895C28.7259 34.9903 28.9611 34.9313 29.1714 34.8178C29.3816 34.7043 29.56 34.54 29.6904 34.3399Z" fill="white"/>
<path d="M26.8177 36.5465C26.6989 36.4687 26.5597 36.428 26.4177 36.4293C26.2757 36.4307 26.1374 36.4741 26.0201 36.5541C25.9028 36.6341 25.8118 36.7471 25.7587 36.8788C25.7056 37.0104 25.6927 37.1549 25.7217 37.2939C25.7507 37.4329 25.8202 37.5601 25.9215 37.6596C26.0229 37.7591 26.1514 37.8263 26.2909 37.8527C26.4304 37.8792 26.5746 37.8637 26.7052 37.8082C26.8359 37.7527 26.9472 37.6597 27.0251 37.541C27.1293 37.3816 27.166 37.1873 27.1272 37.0008C27.0883 36.8143 26.977 36.6509 26.8177 36.5465Z" fill="white"/>
<path d="M30.1696 39.2982C30.0528 39.2916 29.9367 39.3197 29.8359 39.3791C29.7351 39.4384 29.6541 39.5263 29.6033 39.6317C29.5525 39.737 29.534 39.8551 29.5502 39.9709C29.5665 40.0868 29.6167 40.1952 29.6946 40.2825C29.7724 40.3698 29.8744 40.4321 29.9876 40.4614C30.1009 40.4908 30.2203 40.4859 30.3307 40.4474C30.4412 40.4089 30.5378 40.3385 30.6082 40.2451C30.6787 40.1517 30.7199 40.0395 30.7266 39.9228C30.731 39.8452 30.7202 39.7675 30.6946 39.6941C30.669 39.6207 30.6292 39.5531 30.5775 39.4951C30.5258 39.4371 30.4631 39.3899 30.3931 39.3561C30.3231 39.3223 30.2472 39.3027 30.1696 39.2982Z" fill="white"/>
<path d="M30.1759 35.5763C30.0089 35.5662 29.8426 35.6058 29.6982 35.6902C29.5537 35.7746 29.4375 35.9 29.3644 36.0505C29.2913 36.201 29.2644 36.3698 29.2873 36.5356C29.3102 36.7013 29.3817 36.8565 29.4929 36.9816C29.6041 37.1066 29.7499 37.1959 29.9118 37.238C30.0737 37.2802 30.2445 37.2733 30.4025 37.2183C30.5605 37.1633 30.6987 37.0626 30.7994 36.929C30.9002 36.7954 30.959 36.635 30.9685 36.4679C30.9814 36.2446 30.9052 36.0253 30.7566 35.8582C30.608 35.691 30.3991 35.5897 30.1759 35.5763Z" fill="white"/>
<path d="M33.6331 36.4891C33.5063 36.5535 33.4014 36.654 33.3317 36.778C33.262 36.902 33.2307 37.0439 33.2417 37.1857C33.2527 37.3275 33.3055 37.4629 33.3935 37.5746C33.4815 37.6864 33.6006 37.7696 33.7359 37.8136C33.8711 37.8576 34.0164 37.8605 34.1533 37.8219C34.2902 37.7834 34.4126 37.705 34.5049 37.5969C34.5973 37.4887 34.6555 37.3556 34.6722 37.2143C34.6888 37.073 34.6632 36.93 34.5985 36.8033C34.5559 36.7192 34.497 36.6444 34.4254 36.5831C34.3537 36.5218 34.2707 36.4752 34.181 36.446C34.0913 36.4168 33.9968 36.4056 33.9028 36.413C33.8087 36.4204 33.7171 36.4463 33.6331 36.4891Z" fill="white"/>
</svg>
