<svg width="20" height="21" viewBox="0 0 20 21" fill="none" xmlns="http://www.w3.org/2000/svg">
<rect y="0.5" width="20" height="20" rx="10" fill="#F5B300"/>
<path d="M6.48653 5.09794C6.85377 5.1981 7.22101 5.26487 7.58825 5.36502C7.95549 5.46518 8.32273 5.53195 8.68997 5.63211C8.79013 5.66549 8.82351 5.63211 8.8569 5.53195C8.99044 4.9644 9.12398 4.43023 9.25752 3.86268C9.29091 3.76252 9.32429 3.72913 9.42445 3.76252C9.75831 3.86268 10.0588 3.92945 10.3926 3.99622C10.4928 4.0296 10.4928 4.06299 10.4594 4.12976C10.3259 4.66393 10.1923 5.23148 10.0588 5.76565C10.0588 5.79903 10.0588 5.83242 10.0254 5.89919C10.2925 5.96596 10.5929 6.03273 10.86 6.0995C10.8934 6.0995 10.9268 6.03273 10.9602 5.99935C11.0603 5.56534 11.1605 5.16471 11.294 4.7307C11.3274 4.59716 11.3608 4.46361 11.3942 4.33007C11.3942 4.2633 11.4276 4.22992 11.4944 4.2633C11.8282 4.36346 12.1621 4.43023 12.5293 4.53039C12.5627 4.53039 12.5627 4.56377 12.5961 4.56377C12.4959 4.99778 12.3958 5.39841 12.2956 5.79903C12.2622 5.96596 12.2288 6.13289 12.1621 6.29982C12.1287 6.39997 12.1621 6.43336 12.2622 6.46674C12.6295 6.63367 12.9967 6.8006 13.3639 6.96753C13.6978 7.16784 13.9983 7.43492 14.232 7.76878C14.5324 8.26956 14.5658 8.80373 14.4323 9.3379C14.3321 9.70514 14.1986 10.039 13.9315 10.3061C13.7312 10.5064 13.4641 10.6399 13.197 10.7401C13.1636 10.7401 13.1302 10.7735 13.0635 10.7735C13.197 10.8736 13.3306 10.9404 13.4641 11.0406C13.8647 11.341 14.1318 11.7083 14.2653 12.1757C14.3321 12.5429 14.2987 12.9435 14.1986 13.3108C14.065 13.7782 13.8981 14.1788 13.5976 14.546C13.2304 14.98 12.763 15.2137 12.2288 15.2805C11.5277 15.3807 10.86 15.3139 10.1923 15.2137C10.0922 15.1804 10.0254 15.2137 9.992 15.3139C9.85846 15.8481 9.72492 16.4156 9.59138 16.9498C9.55799 17.0833 9.55799 17.1167 9.39106 17.0499C9.0906 16.9832 8.75674 16.883 8.45627 16.8162C8.35611 16.7829 8.35611 16.7495 8.3895 16.6827C8.52304 16.1152 8.65658 15.5476 8.82351 15.0134C8.82351 14.9467 8.8569 14.9133 8.79013 14.8799C8.52304 14.8131 8.25596 14.7463 7.95549 14.6796C7.88872 14.98 7.78856 15.2805 7.72179 15.581C7.65502 15.8815 7.55486 16.1819 7.48809 16.4824C7.45471 16.5492 7.45471 16.5826 7.35455 16.5492C7.0207 16.449 6.68684 16.3822 6.35298 16.3155C6.25283 16.2821 6.25283 16.2487 6.28621 16.1819C6.41976 15.6144 6.5533 15.0468 6.72023 14.5126C6.72023 14.4793 6.75361 14.4459 6.75361 14.3791C5.98574 14.1788 5.21788 13.9785 4.41663 13.7782C4.4834 13.6446 4.51678 13.5445 4.58355 13.4109C4.7171 13.1105 4.85064 12.81 4.95079 12.5429C4.98418 12.4427 5.01757 12.4427 5.11772 12.4427C5.35142 12.5095 5.6185 12.5763 5.8522 12.6097C6.11929 12.6764 6.3196 12.5429 6.35298 12.3092C6.787 10.6065 7.22101 8.90389 7.62163 7.16784C7.6884 6.90076 7.52148 6.60029 7.22101 6.50013C6.92054 6.39997 6.62007 6.3332 6.35298 6.26643C6.28621 6.26643 6.25283 6.23305 6.28621 6.16628C6.38637 5.79903 6.48653 5.39841 6.58668 5.03117C6.45314 5.13132 6.45314 5.13132 6.48653 5.09794ZM8.18919 13.3442C8.22257 13.3442 8.25596 13.3775 8.25596 13.3775C8.79013 13.5111 9.35768 13.678 9.92523 13.7114C10.3259 13.7448 10.6931 13.7448 11.0603 13.6112C11.6947 13.4109 11.9617 12.5763 11.5945 12.0421C11.4276 11.775 11.1605 11.6081 10.8934 11.4412C10.2925 11.1073 9.59138 10.9738 8.92367 10.8402C8.82351 10.8069 8.82351 10.8402 8.79013 10.9404C8.72336 11.2743 8.6232 11.5747 8.55643 11.9086C8.42289 12.376 8.32273 12.8434 8.18919 13.3442ZM10.9936 9.93884C11.0603 9.93884 11.2273 9.90545 11.3608 9.87207C11.9951 9.73852 12.329 9.00404 11.9951 8.43649C11.8282 8.13602 11.5277 7.93571 11.2273 7.80216C10.7599 7.60185 10.2925 7.5017 9.79169 7.36815C9.69153 7.33477 9.65815 7.36815 9.62476 7.46831C9.45784 8.1694 9.29091 8.83712 9.0906 9.53821C9.05721 9.60498 9.0906 9.63837 9.15737 9.67175C9.29091 9.70514 9.39107 9.73852 9.52461 9.77191C10.0254 9.83868 10.4594 9.93884 10.9936 9.93884Z" fill="white"/>
</svg>
