<svg width="40" height="41" viewBox="0 0 40 41" fill="none" xmlns="http://www.w3.org/2000/svg">
<rect y="0.5" width="40" height="40" rx="20" fill="#DFE1E7"/>
<rect x="10" y="10.5" width="20" height="20" rx="10" fill="#F5B300"/>
<path d="M16.4865 15.0979C16.8538 15.1981 17.221 15.2649 17.5882 15.365C17.9555 15.4652 18.3227 15.532 18.69 15.6321C18.7901 15.6655 18.8235 15.6321 18.8569 15.532C18.9904 14.9644 19.124 14.4302 19.2575 13.8627C19.2909 13.7625 19.3243 13.7291 19.4245 13.7625C19.7583 13.8627 20.0588 13.9294 20.3926 13.9962C20.4928 14.0296 20.4928 14.063 20.4594 14.1298C20.3259 14.6639 20.1923 15.2315 20.0588 15.7656C20.0588 15.799 20.0588 15.8324 20.0254 15.8992C20.2925 15.966 20.5929 16.0327 20.86 16.0995C20.8934 16.0995 20.9268 16.0327 20.9602 15.9993C21.0603 15.5653 21.1605 15.1647 21.294 14.7307C21.3274 14.5972 21.3608 14.4636 21.3942 14.3301C21.3942 14.2633 21.4276 14.2299 21.4944 14.2633C21.8282 14.3635 22.1621 14.4302 22.5293 14.5304C22.5627 14.5304 22.5627 14.5638 22.5961 14.5638C22.4959 14.9978 22.3958 15.3984 22.2956 15.799C22.2622 15.966 22.2288 16.1329 22.1621 16.2998C22.1287 16.4 22.1621 16.4334 22.2622 16.4667C22.6295 16.6337 22.9967 16.8006 23.3639 16.9675C23.6978 17.1678 23.9983 17.4349 24.232 17.7688C24.5324 18.2696 24.5658 18.8037 24.4323 19.3379C24.3321 19.7051 24.1986 20.039 23.9315 20.3061C23.7312 20.5064 23.4641 20.6399 23.197 20.7401C23.1636 20.7401 23.1302 20.7735 23.0635 20.7735C23.197 20.8736 23.3306 20.9404 23.4641 21.0406C23.8647 21.341 24.1318 21.7083 24.2653 22.1757C24.3321 22.5429 24.2987 22.9435 24.1986 23.3108C24.065 23.7782 23.8981 24.1788 23.5976 24.546C23.2304 24.98 22.763 25.2137 22.2288 25.2805C21.5277 25.3807 20.86 25.3139 20.1923 25.2137C20.0922 25.1804 20.0254 25.2137 19.992 25.3139C19.8585 25.8481 19.7249 26.4156 19.5914 26.9498C19.558 27.0833 19.558 27.1167 19.3911 27.0499C19.0906 26.9832 18.7567 26.883 18.4563 26.8162C18.3561 26.7829 18.3561 26.7495 18.3895 26.6827C18.523 26.1152 18.6566 25.5476 18.8235 25.0134C18.8235 24.9467 18.8569 24.9133 18.7901 24.8799C18.523 24.8131 18.256 24.7463 17.9555 24.6796C17.8887 24.98 17.7886 25.2805 17.7218 25.581C17.655 25.8815 17.5549 26.1819 17.4881 26.4824C17.4547 26.5492 17.4547 26.5826 17.3546 26.5492C17.0207 26.449 16.6868 26.3822 16.353 26.3155C16.2528 26.2821 16.2528 26.2487 16.2862 26.1819C16.4198 25.6144 16.5533 25.0468 16.7202 24.5126C16.7202 24.4793 16.7536 24.4459 16.7536 24.3791C15.9857 24.1788 15.2179 23.9785 14.4166 23.7782C14.4834 23.6446 14.5168 23.5445 14.5836 23.4109C14.7171 23.1105 14.8506 22.81 14.9508 22.5429C14.9842 22.4427 15.0176 22.4427 15.1177 22.4427C15.3514 22.5095 15.6185 22.5763 15.8522 22.6097C16.1193 22.6764 16.3196 22.5429 16.353 22.3092C16.787 20.6065 17.221 18.9039 17.6216 17.1678C17.6884 16.9008 17.5215 16.6003 17.221 16.5001C16.9205 16.4 16.6201 16.3332 16.353 16.2664C16.2862 16.2664 16.2528 16.233 16.2862 16.1663C16.3864 15.799 16.4865 15.3984 16.5867 15.0312C16.4531 15.1313 16.4531 15.1313 16.4865 15.0979ZM18.1892 23.3442C18.2226 23.3442 18.256 23.3775 18.256 23.3775C18.7901 23.5111 19.3577 23.678 19.9252 23.7114C20.3259 23.7448 20.6931 23.7448 21.0603 23.6112C21.6947 23.4109 21.9617 22.5763 21.5945 22.0421C21.4276 21.775 21.1605 21.6081 20.8934 21.4412C20.2925 21.1073 19.5914 20.9738 18.9237 20.8402C18.8235 20.8069 18.8235 20.8402 18.7901 20.9404C18.7234 21.2743 18.6232 21.5747 18.5564 21.9086C18.4229 22.376 18.3227 22.8434 18.1892 23.3442ZM20.9936 19.9388C21.0603 19.9388 21.2273 19.9055 21.3608 19.8721C21.9951 19.7385 22.329 19.004 21.9951 18.4365C21.8282 18.136 21.5277 17.9357 21.2273 17.8022C20.7599 17.6019 20.2925 17.5017 19.7917 17.3682C19.6915 17.3348 19.6581 17.3682 19.6248 17.4683C19.4578 18.1694 19.2909 18.8371 19.0906 19.5382C19.0572 19.605 19.0906 19.6384 19.1574 19.6718C19.2909 19.7051 19.3911 19.7385 19.5246 19.7719C20.0254 19.8387 20.4594 19.9388 20.9936 19.9388Z" fill="white"/>
</svg>
