<svg width="20" height="21" viewBox="0 0 20 21" fill="none" xmlns="http://www.w3.org/2000/svg">
<rect y="0.5" width="20" height="20" rx="10" fill="#0033AD"/>
<path d="M6.90065 10.5273C6.88606 10.7814 6.97296 11.031 7.14225 11.2211C7.31155 11.4112 7.54939 11.5263 7.80351 11.5412H7.85588C8.04305 11.541 8.22605 11.486 8.38231 11.3829C8.53857 11.2799 8.66125 11.1334 8.73521 10.9615C8.80916 10.7896 8.83116 10.5997 8.79848 10.4155C8.7658 10.2312 8.67987 10.0605 8.55131 9.92447C8.42274 9.78846 8.25717 9.69306 8.07501 9.65006C7.89286 9.60706 7.7021 9.61834 7.52628 9.6825C7.35046 9.74667 7.19728 9.86091 7.08563 10.0111C6.97399 10.1613 6.90878 10.341 6.89804 10.5278L6.90065 10.5273Z" fill="white"/>
<path d="M3.32692 10.2843C3.26583 10.2809 3.20508 10.2956 3.15238 10.3267C3.09967 10.3578 3.05736 10.4038 3.0308 10.459C3.00424 10.5141 2.99461 10.5759 3.00314 10.6365C3.01168 10.6971 3.03798 10.7538 3.07873 10.7994C3.11948 10.8451 3.17285 10.8776 3.23209 10.893C3.29134 10.9083 3.35379 10.9057 3.41157 10.8855C3.46935 10.8654 3.51986 10.8286 3.55672 10.7797C3.59357 10.7309 3.61511 10.6722 3.61863 10.6111C3.62103 10.5704 3.61538 10.5297 3.60201 10.4913C3.58864 10.4528 3.5678 10.4174 3.54069 10.3871C3.51359 10.3567 3.48075 10.332 3.44406 10.3143C3.40738 10.2967 3.36757 10.2865 3.32692 10.2843Z" fill="white"/>
<path d="M6.83991 4.96507C6.89432 4.93712 6.93926 4.8937 6.96905 4.84028C6.99885 4.78685 7.01217 4.7258 7.00734 4.66482C7.00252 4.60384 6.97976 4.54565 6.94193 4.49757C6.90411 4.44949 6.85291 4.41368 6.79477 4.39464C6.73664 4.3756 6.67417 4.37419 6.61523 4.39057C6.55629 4.40696 6.50352 4.44042 6.46356 4.48673C6.42359 4.53304 6.39822 4.59014 6.39064 4.65085C6.38306 4.71155 6.3936 4.77313 6.42095 4.82786C6.43933 4.86448 6.46477 4.89711 6.49582 4.92386C6.52687 4.95061 6.56291 4.97094 6.60186 4.9837C6.6408 4.99645 6.68189 5.00137 6.72274 4.99817C6.7636 4.99498 6.80342 4.98372 6.83991 4.96507Z" fill="white"/>
<path d="M7.81242 6.66081C7.89693 6.61818 7.9669 6.55145 8.0135 6.46905C8.06009 6.38666 8.08121 6.2923 8.07418 6.1979C8.06715 6.10351 8.03229 6.01332 7.97402 5.93873C7.91574 5.86414 7.83665 5.80851 7.74676 5.77886C7.65687 5.74922 7.5602 5.74689 7.46899 5.77217C7.37777 5.79745 7.2961 5.84921 7.23429 5.9209C7.17249 5.9926 7.13333 6.08101 7.12176 6.17495C7.1102 6.2689 7.12674 6.36417 7.16931 6.44871C7.1976 6.50488 7.23667 6.55492 7.2843 6.59599C7.33193 6.63705 7.38719 6.66832 7.44692 6.68802C7.50664 6.70771 7.56966 6.71545 7.63237 6.71078C7.69509 6.70611 7.75627 6.68913 7.81242 6.66081Z" fill="white"/>
<path d="M4.53981 7.82709C4.605 7.86995 4.68144 7.89252 4.75945 7.89194C4.83747 7.89135 4.91356 7.86763 4.97809 7.82379C5.04263 7.77995 5.0927 7.71795 5.12199 7.64564C5.15128 7.57332 5.15846 7.49395 5.14262 7.41756C5.12679 7.34116 5.08865 7.27118 5.03303 7.21647C4.97741 7.16176 4.90681 7.12478 4.83017 7.1102C4.75352 7.09562 4.67428 7.10411 4.60246 7.13458C4.53064 7.16505 4.46947 7.21615 4.4267 7.28139C4.36941 7.36878 4.34914 7.47533 4.37035 7.57764C4.39156 7.67996 4.45251 7.76968 4.53981 7.82709Z" fill="white"/>
<path d="M5.12269 10.1099C5.02819 10.1046 4.93424 10.1274 4.85269 10.1754C4.77115 10.2235 4.70569 10.2946 4.66458 10.3799C4.62346 10.4651 4.60855 10.5607 4.62172 10.6544C4.63489 10.7481 4.67555 10.8358 4.73856 10.9065C4.80157 10.9771 4.88411 11.0275 4.97574 11.0512C5.06737 11.0749 5.16397 11.0709 5.25334 11.0398C5.34271 11.0086 5.42084 10.9516 5.47784 10.8761C5.53484 10.8005 5.56817 10.7098 5.5736 10.6153C5.58075 10.4885 5.53727 10.364 5.45273 10.2693C5.36818 10.1745 5.24948 10.1172 5.12269 10.1099Z" fill="white"/>
<path d="M4.59218 13.328C4.52259 13.3632 4.46498 13.4182 4.42665 13.4861C4.38832 13.554 4.37098 13.6318 4.37682 13.7095C4.38267 13.7873 4.41144 13.8616 4.45949 13.923C4.50754 13.9844 4.57273 14.0302 4.6468 14.0546C4.72087 14.0789 4.80051 14.0808 4.87564 14.0599C4.95077 14.0391 5.01803 13.9964 5.06891 13.9373C5.11978 13.8782 5.152 13.8053 5.16148 13.7279C5.17096 13.6505 5.15728 13.5721 5.12217 13.5024C5.09884 13.4562 5.06662 13.4149 5.02735 13.3811C4.98808 13.3473 4.94254 13.3216 4.89332 13.3054C4.8441 13.2892 4.79217 13.2829 4.7405 13.2867C4.68883 13.2906 4.63843 13.3047 4.59218 13.328Z" fill="white"/>
<path d="M6.45289 9.12063C6.5461 9.18171 6.65533 9.21379 6.76677 9.2128C6.87821 9.21181 6.98685 9.1778 7.07896 9.11507C7.17107 9.05233 7.24251 8.9637 7.28425 8.86037C7.32599 8.75703 7.33615 8.64365 7.31345 8.53454C7.29075 8.42543 7.23621 8.32551 7.15672 8.2474C7.07723 8.16928 6.97637 8.1165 6.86688 8.09571C6.7574 8.07492 6.6442 8.08706 6.54162 8.1306C6.43903 8.17414 6.35166 8.24712 6.29054 8.34031C6.24989 8.40218 6.22184 8.47147 6.20799 8.54419C6.19415 8.61692 6.19478 8.69166 6.20986 8.76414C6.22494 8.83663 6.25417 8.90542 6.29587 8.96659C6.33758 9.02776 6.39093 9.0801 6.45289 9.12063Z" fill="white"/>
<path d="M12.356 6.6231C12.4354 6.67487 12.5283 6.70194 12.6231 6.70091C12.7178 6.69987 12.8101 6.67077 12.8884 6.61727C12.9666 6.56378 13.0272 6.4883 13.0625 6.40038C13.0978 6.31245 13.1063 6.21603 13.0868 6.12329C13.0673 6.03056 13.0208 5.94568 12.9531 5.87939C12.8854 5.81309 12.7996 5.76835 12.7065 5.75083C12.6133 5.73331 12.5171 5.74379 12.4299 5.78094C12.3428 5.81809 12.2686 5.88026 12.2167 5.95957C12.1822 6.01226 12.1584 6.07123 12.1468 6.13313C12.1351 6.19502 12.1357 6.25861 12.1487 6.32025C12.1616 6.38189 12.1866 6.44037 12.2222 6.49234C12.2578 6.54431 12.3032 6.58875 12.356 6.6231Z" fill="white"/>
<path d="M13.3385 4.9326C13.3898 4.96622 13.4499 4.98387 13.5113 4.98332C13.5726 4.98277 13.6324 4.96404 13.6831 4.9295C13.7337 4.89496 13.773 4.84616 13.796 4.78927C13.8189 4.73239 13.8245 4.66998 13.812 4.60994C13.7994 4.5499 13.7694 4.49493 13.7256 4.45198C13.6818 4.40902 13.6262 4.38003 13.566 4.36865C13.5057 4.35728 13.4434 4.36404 13.387 4.38807C13.3305 4.41211 13.2825 4.45234 13.249 4.50369C13.204 4.57245 13.1882 4.65625 13.205 4.73667C13.2218 4.81709 13.2698 4.88756 13.3385 4.9326Z" fill="white"/>
<path d="M12.4315 9.615C12.3058 9.60778 12.1799 9.62538 12.061 9.66681C11.9421 9.70823 11.8326 9.77267 11.7386 9.85643C11.5488 10.0256 11.434 10.2632 11.4194 10.5171C11.4048 10.7709 11.4917 11.0201 11.6608 11.2099C11.83 11.3997 12.0676 11.5145 12.3215 11.5291C12.3398 11.5291 12.3587 11.5291 12.377 11.5291C12.5619 11.529 12.7428 11.4755 12.898 11.3748C13.0531 11.2742 13.1758 11.1309 13.2513 10.9621C13.3268 10.7933 13.3519 10.6063 13.3235 10.4236C13.2951 10.2409 13.2145 10.0703 13.0913 9.93236C13.0079 9.83831 12.9066 9.7618 12.7933 9.70732C12.68 9.65283 12.557 9.62145 12.4315 9.615Z" fill="white"/>
<path d="M8.12716 9.05412C8.20672 9.21306 8.32908 9.34664 8.48044 9.43981C8.63181 9.53299 8.80619 9.58205 8.98393 9.58148C9.14781 9.58152 9.30896 9.53956 9.452 9.4596C9.59504 9.37965 9.71521 9.26437 9.80103 9.12476C9.88685 8.98516 9.93546 8.82589 9.94222 8.66216C9.94899 8.49843 9.91368 8.33569 9.83966 8.18949C9.75954 8.03126 9.63696 7.89847 9.48564 7.80598C9.33432 7.71348 9.16024 7.66494 8.98289 7.66579C8.81952 7.66607 8.65893 7.70808 8.51636 7.78784C8.37378 7.8676 8.25395 7.98247 8.16823 8.12154C8.08251 8.26062 8.03374 8.41928 8.02655 8.5825C8.01937 8.74571 8.054 8.90805 8.12716 9.05412Z" fill="white"/>
<path d="M15.6423 7.82604C15.7119 7.79091 15.7695 7.73594 15.8079 7.66807C15.8462 7.60019 15.8636 7.52247 15.8579 7.44471C15.8521 7.36696 15.8234 7.29267 15.7754 7.23122C15.7274 7.16978 15.6622 7.12394 15.5882 7.0995C15.5141 7.07507 15.4345 7.07313 15.3594 7.09393C15.2842 7.11473 15.2169 7.15735 15.166 7.21638C15.1151 7.27542 15.0828 7.34822 15.0732 7.4256C15.0637 7.50298 15.0773 7.58146 15.1123 7.65112C15.1594 7.74456 15.2417 7.81546 15.3411 7.84825C15.4404 7.88105 15.5488 7.87306 15.6423 7.82604Z" fill="white"/>
<path d="M13.2118 8.13136C13.1122 8.18149 13.0298 8.26001 12.9749 8.357C12.92 8.45398 12.895 8.56507 12.9033 8.67621C12.9115 8.78736 12.9525 8.89357 13.0211 8.98142C13.0897 9.06926 13.1828 9.1348 13.2886 9.16973C13.3944 9.20467 13.5082 9.20744 13.6157 9.17769C13.7231 9.14794 13.8192 9.08701 13.892 9.0026C13.9648 8.91819 14.0109 8.8141 14.0245 8.70348C14.0381 8.59287 14.0186 8.4807 13.9685 8.38116C13.9353 8.31502 13.8893 8.25609 13.8333 8.20773C13.7773 8.15936 13.7122 8.12253 13.6419 8.09933C13.5717 8.07612 13.4975 8.06701 13.4237 8.07251C13.3499 8.078 13.2778 8.098 13.2118 8.13136Z" fill="white"/>
<path d="M10.0811 4.78805C10.159 4.79249 10.2364 4.77373 10.3036 4.73414C10.3708 4.69455 10.4248 4.63592 10.4587 4.56566C10.4926 4.49539 10.5049 4.41666 10.494 4.33941C10.4831 4.26217 10.4496 4.18988 10.3977 4.13169C10.3457 4.0735 10.2776 4.03204 10.2021 4.01253C10.1266 3.99302 10.047 3.99635 9.97334 4.0221C9.8997 4.04785 9.83536 4.09486 9.78844 4.15719C9.74153 4.21951 9.71416 4.29435 9.70978 4.37224C9.70392 4.47661 9.73974 4.57903 9.80936 4.657C9.87899 4.73497 9.97672 4.78211 10.0811 4.78805Z" fill="white"/>
<path d="M10.0769 7.26987C10.1881 7.27611 10.2987 7.24923 10.3947 7.19262C10.4907 7.13602 10.5677 7.05224 10.6161 6.95187C10.6644 6.8515 10.682 6.73904 10.6664 6.62871C10.6509 6.51838 10.603 6.41513 10.5288 6.33201C10.4546 6.24889 10.3575 6.18963 10.2496 6.16172C10.1417 6.13381 10.028 6.1385 9.92282 6.1752C9.81762 6.2119 9.72566 6.27897 9.65857 6.36792C9.59147 6.45687 9.55225 6.56371 9.54586 6.67495C9.53743 6.82425 9.58863 6.97079 9.68821 7.08235C9.78779 7.19391 9.9276 7.26136 10.0769 7.26987Z" fill="white"/>
<path d="M7.02372 13.0222C7.12325 12.972 7.20566 12.8934 7.26053 12.7964C7.3154 12.6994 7.34027 12.5883 7.33199 12.4771C7.3237 12.366 7.28264 12.2598 7.214 12.172C7.14536 12.0842 7.05221 12.0187 6.94635 11.9838C6.84048 11.9489 6.72666 11.9462 6.61926 11.9761C6.51186 12.0059 6.41573 12.0669 6.343 12.1514C6.27028 12.2358 6.22424 12.34 6.21071 12.4506C6.19718 12.5612 6.21676 12.6734 6.26698 12.7729C6.3343 12.9063 6.45183 13.0075 6.59374 13.0542C6.73565 13.101 6.89031 13.0895 7.02372 13.0222Z" fill="white"/>
<path d="M10.4409 8.09208C10.324 8.27043 10.2699 8.48267 10.2873 8.6952C10.3046 8.90773 10.3923 9.10842 10.5365 9.26549C10.6807 9.42257 10.8732 9.52706 11.0835 9.56244C11.2937 9.59782 11.5098 9.56206 11.6975 9.46081C11.8852 9.35957 12.0337 9.19864 12.1196 9.00348C12.2055 8.80831 12.2239 8.59007 12.1718 8.38329C12.1197 8.17652 12.0002 7.99301 11.8321 7.86182C11.664 7.73063 11.4569 7.65925 11.2437 7.65898C11.0845 7.65887 10.9277 7.6984 10.7875 7.77401C10.6474 7.84962 10.5282 7.95893 10.4409 8.09208Z" fill="white"/>
<path d="M12.1073 12.1C12.0305 11.9477 11.9145 11.8187 11.7712 11.7262C11.6279 11.6338 11.4626 11.5812 11.2922 11.574C11.1218 11.5667 10.9526 11.6051 10.802 11.6851C10.6514 11.7651 10.5249 11.8838 10.4355 12.029C10.3461 12.1742 10.297 12.3407 10.2934 12.5112C10.2898 12.6817 10.3317 12.85 10.4149 12.9989C10.4981 13.1478 10.6194 13.2717 10.7665 13.3581C10.9136 13.4444 11.081 13.4899 11.2516 13.4899C11.4016 13.4888 11.5493 13.453 11.6831 13.3851C11.9094 13.2706 12.0811 13.071 12.1606 12.8301C12.2401 12.5893 12.2209 12.3267 12.1073 12.1Z" fill="white"/>
<path d="M13.7821 12.0329C13.6889 11.9718 13.5797 11.9396 13.4683 11.9405C13.3568 11.9414 13.2481 11.9753 13.156 12.038C13.0638 12.1007 12.9923 12.1893 12.9505 12.2926C12.9087 12.3959 12.8984 12.5093 12.9211 12.6184C12.9437 12.7275 12.9982 12.8275 13.0776 12.9057C13.1571 12.9838 13.2579 13.0367 13.3674 13.0575C13.4769 13.0784 13.5901 13.0663 13.6927 13.0228C13.7953 12.9793 13.8827 12.9064 13.9439 12.8132C14.0256 12.6882 14.0545 12.5359 14.0242 12.3897C13.9938 12.2434 13.9068 12.1151 13.7821 12.0329Z" fill="white"/>
<path d="M15.6171 10.5933C15.6225 10.4988 15.5997 10.4048 15.5516 10.3233C15.5035 10.2417 15.4324 10.1763 15.3471 10.1352C15.2619 10.094 15.1664 10.0791 15.0726 10.0923C14.9789 10.1055 14.8912 10.1461 14.8205 10.2091C14.7499 10.2722 14.6996 10.3547 14.6758 10.4463C14.6521 10.5379 14.6561 10.6345 14.6873 10.7239C14.7184 10.8133 14.7754 10.8914 14.8509 10.9484C14.9265 11.0054 15.0173 11.0387 15.1118 11.0442C15.2385 11.0513 15.363 11.0079 15.4577 10.9233C15.5525 10.8388 15.6098 10.7201 15.6171 10.5933Z" fill="white"/>
<path d="M16.9431 10.2523C16.8819 10.2488 16.821 10.2635 16.7682 10.2946C16.7153 10.3257 16.6729 10.3717 16.6462 10.427C16.6195 10.4822 16.6098 10.544 16.6183 10.6048C16.6268 10.6655 16.6531 10.7224 16.6939 10.7681C16.7347 10.8139 16.7881 10.8466 16.8475 10.862C16.9068 10.8774 16.9694 10.8748 17.0273 10.8546C17.0852 10.8345 17.1358 10.7976 17.1728 10.7486C17.2097 10.6997 17.2313 10.6409 17.2348 10.5797C17.2394 10.4976 17.2113 10.4171 17.1566 10.3557C17.1019 10.2944 17.0252 10.2572 16.9431 10.2523Z" fill="white"/>
<path d="M15.6946 13.3265C15.6294 13.2837 15.553 13.2613 15.475 13.262C15.397 13.2627 15.321 13.2865 15.2565 13.3304C15.1921 13.3743 15.1421 13.4364 15.1129 13.5087C15.0837 13.581 15.0766 13.6603 15.0925 13.7367C15.1084 13.813 15.1465 13.8829 15.2021 13.9376C15.2578 13.9923 15.3283 14.0292 15.4049 14.0438C15.4816 14.0583 15.5608 14.0498 15.6326 14.0194C15.7043 13.9889 15.7655 13.9379 15.8083 13.8727C15.8367 13.8294 15.8563 13.7809 15.866 13.73C15.8756 13.6791 15.8752 13.6268 15.8646 13.576C15.8541 13.5253 15.8336 13.4771 15.8045 13.4343C15.7753 13.3915 15.738 13.3549 15.6946 13.3265Z" fill="white"/>
<path d="M6.89647 16.221C6.8452 16.1873 6.78512 16.1696 6.72381 16.1701C6.6625 16.1707 6.60272 16.1893 6.55202 16.2238C6.50133 16.2583 6.46199 16.307 6.43899 16.3639C6.41599 16.4207 6.41036 16.4831 6.4228 16.5431C6.43525 16.6031 6.46521 16.6581 6.50891 16.7011C6.55261 16.7441 6.60808 16.7732 6.66831 16.7847C6.72853 16.7962 6.79081 16.7896 6.84727 16.7657C6.90373 16.7417 6.95183 16.7016 6.98549 16.6504C7.00786 16.6164 7.02329 16.5782 7.03092 16.5382C7.03855 16.4982 7.03822 16.4571 7.02995 16.4172C7.02168 16.3773 7.00564 16.3395 6.98274 16.3058C6.95983 16.2721 6.93052 16.2433 6.89647 16.221Z" fill="white"/>
<path d="M13.3945 16.1885C13.3398 16.2161 13.2944 16.2593 13.2642 16.3127C13.234 16.3661 13.2204 16.4272 13.2249 16.4883C13.2295 16.5495 13.252 16.6079 13.2898 16.6562C13.3276 16.7046 13.3788 16.7406 13.437 16.7598C13.4953 16.779 13.5579 16.7805 13.617 16.7641C13.6761 16.7477 13.729 16.7141 13.769 16.6677C13.809 16.6212 13.8344 16.5639 13.8418 16.503C13.8493 16.4422 13.8385 16.3804 13.8109 16.3257C13.7926 16.2893 13.7673 16.2569 13.7365 16.2303C13.7056 16.2037 13.6699 16.1834 13.6312 16.1707C13.5925 16.1579 13.5517 16.1529 13.5111 16.156C13.4705 16.1591 13.4309 16.1701 13.3945 16.1885Z" fill="white"/>
<path d="M9.79358 13.0599C9.91046 12.8815 9.96451 12.6693 9.94717 12.4567C9.92983 12.2442 9.8421 12.0435 9.69785 11.8864C9.55361 11.7293 9.36109 11.6248 9.15078 11.5895C8.94047 11.5542 8.72438 11.59 8.53672 11.6913C8.34906 11.7926 8.20055 11.9536 8.1147 12.1488C8.02884 12.344 8.01055 12.5623 8.06272 12.7691C8.11488 12.9758 8.23453 13.1593 8.40271 13.2904C8.5709 13.4216 8.77801 13.4928 8.99127 13.493C9.15053 13.4935 9.30739 13.4542 9.44753 13.3785C9.58768 13.3029 9.70664 13.1933 9.79358 13.0599Z" fill="white"/>
<path d="M7.8784 14.531C7.7992 14.4792 7.70641 14.452 7.61176 14.4529C7.51711 14.4538 7.42486 14.4828 7.34667 14.5361C7.26847 14.5894 7.20784 14.6647 7.17244 14.7525C7.13704 14.8403 7.12845 14.9366 7.14778 15.0293C7.1671 15.1219 7.21346 15.2068 7.28099 15.2731C7.34853 15.3394 7.43421 15.3842 7.5272 15.4018C7.62019 15.4195 7.71633 15.4091 7.80345 15.3721C7.89057 15.3351 7.96477 15.2731 8.01666 15.194C8.08617 15.0877 8.11065 14.9582 8.08473 14.8339C8.0588 14.7096 7.9846 14.6006 7.8784 14.531Z" fill="white"/>
<path d="M10.113 16.3655C10.0352 16.3611 9.95775 16.3798 9.89055 16.4194C9.82335 16.459 9.76939 16.5176 9.73549 16.5878C9.7016 16.658 9.68928 16.7367 9.70011 16.814C9.71094 16.8912 9.74443 16.9635 9.79633 17.0217C9.84824 17.0799 9.91623 17.1214 9.99172 17.1409C10.0672 17.1605 10.1468 17.1572 10.2204 17.1316C10.2941 17.1059 10.3585 17.059 10.4054 16.9967C10.4524 16.9345 10.4799 16.8597 10.4843 16.7818C10.4873 16.7301 10.4801 16.6783 10.463 16.6294C10.446 16.5805 10.4194 16.5354 10.3849 16.4967C10.3505 16.4581 10.3087 16.4266 10.262 16.4041C10.2154 16.3815 10.1648 16.3684 10.113 16.3655Z" fill="white"/>
<path d="M10.1172 13.8842C10.0059 13.8774 9.89504 13.9039 9.79873 13.9601C9.70242 14.0164 9.62499 14.1 9.57623 14.2003C9.52747 14.3007 9.50958 14.4132 9.52483 14.5237C9.54008 14.6342 9.58778 14.7377 9.66189 14.8211C9.73601 14.9044 9.83319 14.9639 9.94114 14.992C10.0491 15.0201 10.163 15.0155 10.2683 14.9788C10.3736 14.9422 10.4657 14.8751 10.5329 14.786C10.6001 14.697 10.6393 14.59 10.6456 14.4786C10.6542 14.3297 10.6034 14.1836 10.5043 14.0721C10.4053 13.9607 10.2661 13.8931 10.1172 13.8842Z" fill="white"/>
<path d="M12.422 14.4927C12.3375 14.5357 12.2675 14.6027 12.2211 14.6853C12.1746 14.768 12.1538 14.8626 12.1611 14.9571C12.1684 15.0517 12.2037 15.1419 12.2623 15.2164C12.3209 15.2909 12.4004 15.3464 12.4905 15.3757C12.5807 15.4051 12.6776 15.407 12.7688 15.3813C12.8601 15.3556 12.9417 15.3033 13.0033 15.2312C13.0648 15.1591 13.1036 15.0704 13.1147 14.9762C13.1258 14.882 13.1088 14.7867 13.0657 14.7022C13.0372 14.6462 12.998 14.5963 12.9502 14.5554C12.9024 14.5145 12.8471 14.4835 12.7873 14.464C12.7275 14.4445 12.6645 14.4371 12.6018 14.442C12.5391 14.4469 12.478 14.4642 12.422 14.4927Z" fill="white"/>
</svg>
