<svg width="24" height="24" viewBox="0 0 24 24" fill="none" xmlns="http://www.w3.org/2000/svg">
<path d="M12.0844 3.75C7.48142 3.75 3.75 7.44365 3.75 12C3.75 16.5563 7.48142 20.25 12.0844 20.25C14.7017 20.25 17.0376 19.0548 18.5642 17.1888C18.7664 16.9417 18.8071 16.6016 18.6689 16.3145C18.5306 16.0275 18.238 15.8447 17.9168 15.8446C14.2352 15.8437 11.2509 12.8891 11.2509 9.24459C11.2509 7.67112 11.8061 6.22825 12.7339 5.09422C12.9361 4.8471 12.9768 4.50697 12.8385 4.21994C12.7003 3.9329 12.4077 3.75008 12.0864 3.75H12.0844Z" fill="#666D80"/>
<path d="M14.3438 7.66667C14.8097 7.66667 15.1875 7.29357 15.1875 6.83333C15.1875 6.3731 14.8097 6 14.3438 6C13.8778 6 13.5 6.3731 13.5 6.83333C13.5 7.29357 13.8778 7.66667 14.3438 7.66667Z" fill="#666D80"/>
<path d="M18.5625 12.6667C18.5625 13.1269 18.1847 13.5 17.7188 13.5C17.2528 13.5 16.875 13.1269 16.875 12.6667V11.8333H16.0312C15.5653 11.8333 15.1875 11.4602 15.1875 11C15.1875 10.5398 15.5653 10.1667 16.0312 10.1667H16.875V9.33333C16.875 8.8731 17.2528 8.5 17.7188 8.5C18.1847 8.5 18.5625 8.8731 18.5625 9.33333V10.1667H19.4062C19.8722 10.1667 20.25 10.5398 20.25 11C20.25 11.4602 19.8722 11.8333 19.4062 11.8333H18.5625V12.6667Z" fill="#666D80"/>
</svg>
