<svg width="20" height="21" viewBox="0 0 20 21" fill="none" xmlns="http://www.w3.org/2000/svg">
<rect y="0.5" width="20" height="20" rx="10" fill="white"/>
<path d="M5.40344 11.1932C7.09432 12.0912 8.85871 13.0311 10.2214 13.7584L15 11.1932C13.2698 13.7637 11.8281 15.9036 10.2214 18.2719C8.61192 15.9088 6.83441 13.3013 5.40344 11.1932ZM5.58723 10.4842L10.2267 8.00857L14.8057 10.4661L10.2293 12.9445L5.58723 10.4842ZM10.2214 7.2154L5.40344 9.75175L10.2004 2.72827L15 9.76748L10.2214 7.2154Z" fill="#3AB83A"/>
<path d="M10.2215 13.7584L15.0001 11.1932C13.2698 13.7637 10.2215 18.2719 10.2215 18.2719V13.7584ZM10.2267 8.00857L14.8058 10.4661L10.2293 12.9445L10.2267 8.00857ZM10.2215 7.21559L10.2004 2.72827L15.0001 9.76748L10.2215 7.21559Z" fill="#0B8311"/>
<path d="M5.5874 10.4842L10.2271 10.865L14.8062 10.4685L10.2295 12.9471L5.5874 10.4842Z" fill="#0B8311"/>
<path d="M10.2268 10.865L14.8059 10.4685L10.2294 12.9471L10.2268 10.865Z" fill="#146714"/>
</svg>
