<svg width="20" height="20" viewBox="0 0 20 20" fill="none" xmlns="http://www.w3.org/2000/svg">
<g clip-path="url(#clip0_46_8055)">
<path d="M14.3333 11.6667C14.5641 11.6667 14.6795 11.6667 14.7731 11.718C14.8503 11.7603 14.9221 11.8397 14.9564 11.9207C14.9981 12.0189 14.9876 12.1233 14.9667 12.3323C14.858 13.4157 14.4851 14.4596 13.8764 15.3705C13.1439 16.4669 12.1027 17.3213 10.8845 17.8259C9.66634 18.3305 8.3259 18.4625 7.03269 18.2053C5.73949 17.9481 4.5516 17.3131 3.61925 16.3808C2.6869 15.4484 2.05196 14.2605 1.79473 12.9673C1.53749 11.6741 1.66951 10.3337 2.1741 9.1155C2.67868 7.89733 3.53317 6.85614 4.62949 6.1236C5.54043 5.51493 6.58434 5.14206 7.66772 5.03336C7.87668 5.0124 7.98117 5.00191 8.07936 5.04357C8.16037 5.07794 8.23976 5.14977 8.28204 5.22693C8.3333 5.32048 8.3333 5.4359 8.3333 5.66673V11.0001C8.3333 11.2334 8.3333 11.3501 8.37871 11.4392C8.41866 11.5176 8.4824 11.5814 8.5608 11.6213C8.64993 11.6667 8.76661 11.6667 8.99996 11.6667H14.3333Z" stroke="#1A1B25" stroke-width="2" stroke-linecap="round" stroke-linejoin="round"/>
<path d="M11.6666 2.33339C11.6666 2.10256 11.6666 1.98714 11.7179 1.89359C11.7602 1.81643 11.8396 1.7446 11.9206 1.71023C12.0187 1.66857 12.1232 1.67905 12.3322 1.70001C13.8559 1.85285 15.2883 2.52698 16.3807 3.61935C17.473 4.71172 18.1472 6.14414 18.3 7.66781C18.321 7.87679 18.3315 7.98127 18.2898 8.07947C18.2554 8.16047 18.1836 8.23986 18.1064 8.28214C18.0129 8.33339 17.8975 8.33339 17.6666 8.33339L12.3333 8.33339C12.0999 8.33339 11.9833 8.33339 11.8941 8.28798C11.8157 8.24803 11.752 8.18429 11.712 8.10589C11.6666 8.01676 11.6666 7.90008 11.6666 7.66673V2.33339Z" stroke="#1A1B25" stroke-width="2" stroke-linecap="round" stroke-linejoin="round"/>
</g>
<defs>
<clipPath id="clip0_46_8055">
<rect width="20" height="20" fill="white"/>
</clipPath>
</defs>
</svg>
