<svg width="20" height="20" viewBox="0 0 20 20" fill="none" xmlns="http://www.w3.org/2000/svg">
<path fill-rule="evenodd" clip-rule="evenodd" d="M14.1667 2.70825C14.3634 2.70825 14.5487 2.80087 14.6667 2.95825L17.1667 6.29159C17.3738 6.56773 17.3178 6.95948 17.0417 7.16659C16.7656 7.37369 16.3738 7.31773 16.1667 7.04159L14.7917 5.20825V14.7916L16.1667 12.9583C16.3738 12.6821 16.7656 12.6261 17.0417 12.8333C17.3178 13.0404 17.3738 13.4321 17.1667 13.7083L14.6667 17.0416C14.5487 17.199 14.3634 17.2916 14.1667 17.2916C13.97 17.2916 13.7847 17.199 13.6667 17.0416L11.1667 13.7083C10.9596 13.4321 11.0156 13.0404 11.2917 12.8333C11.5678 12.6261 11.9596 12.6821 12.1667 12.9583L13.5417 14.7916V5.20825L12.1667 7.04159C11.9596 7.31773 11.5678 7.37369 11.2917 7.16659C11.0156 6.95948 10.9596 6.56773 11.1667 6.29158L13.6667 2.95825C13.7847 2.80087 13.97 2.70825 14.1667 2.70825ZM2.70837 5.83325C2.70837 5.48807 2.9882 5.20825 3.33337 5.20825H9.16671C9.51189 5.20825 9.79171 5.48807 9.79171 5.83325C9.79171 6.17843 9.51189 6.45825 9.16671 6.45825H3.33337C2.9882 6.45825 2.70837 6.17843 2.70837 5.83325ZM2.70837 9.99992C2.70837 9.65474 2.9882 9.37492 3.33337 9.37492H9.16671C9.51189 9.37492 9.79171 9.65474 9.79171 9.99992C9.79171 10.3451 9.51189 10.6249 9.16671 10.6249H3.33337C2.9882 10.6249 2.70837 10.3451 2.70837 9.99992ZM2.70837 14.1666C2.70837 13.8214 2.9882 13.5416 3.33337 13.5416H9.16671C9.51189 13.5416 9.79171 13.8214 9.79171 14.1666C9.79171 14.5118 9.51189 14.7916 9.16671 14.7916H3.33337C2.9882 14.7916 2.70837 14.5118 2.70837 14.1666Z" fill="#010409"/>
</svg>
