<svg width="24" height="25" viewBox="0 0 24 25" fill="none" xmlns="http://www.w3.org/2000/svg">
<path d="M17.2 14.4999C17.477 14.4999 17.6155 14.4999 17.7278 14.5614C17.8204 14.6122 17.9065 14.7074 17.9478 14.8046C17.9978 14.9225 17.9852 15.0479 17.96 15.2986C17.8296 16.5987 17.3822 17.8514 16.6518 18.9445C15.7727 20.2601 14.5233 21.2855 13.0615 21.891C11.5997 22.4965 9.99113 22.6549 8.43928 22.3462C6.88743 22.0375 5.46197 21.2756 4.34315 20.1568C3.22433 19.038 2.4624 17.6125 2.15372 16.0606C1.84504 14.5088 2.00347 12.9003 2.60897 11.4385C3.21447 9.97665 4.23985 8.72722 5.55544 7.84817C6.64856 7.11777 7.90125 6.67033 9.20131 6.53989C9.45207 6.51473 9.57745 6.50215 9.69528 6.55214C9.79249 6.59338 9.88776 6.67957 9.9385 6.77218C10 6.88443 10 7.02293 10 7.29993V13.6999C10 13.98 10 14.12 10.0545 14.2269C10.1024 14.321 10.1789 14.3975 10.273 14.4454C10.38 14.4999 10.52 14.4999 10.8 14.4999H17.2Z" stroke="#821FFF" stroke-width="2" stroke-linecap="round" stroke-linejoin="round"/>
<path d="M14 3.29993C14 3.02292 14 2.88442 14.0615 2.77217C14.1122 2.67957 14.2075 2.59338 14.3047 2.55213C14.4225 2.50214 14.5479 2.51472 14.7987 2.53987C16.6271 2.72327 18.346 3.53223 19.6569 4.84307C20.9677 6.15391 21.7767 7.87283 21.9601 9.70123C21.9852 9.952 21.9978 10.0774 21.9478 10.1952C21.9066 10.2924 21.8204 10.3877 21.7278 10.4384C21.6155 10.4999 21.477 10.4999 21.2 10.4999L14.8 10.4999C14.52 10.4999 14.38 10.4999 14.273 10.4454C14.1789 10.3975 14.1024 10.321 14.0545 10.2269C14 10.12 14 9.97995 14 9.69993V3.29993Z" stroke="#821FFF" stroke-width="2" stroke-linecap="round" stroke-linejoin="round"/>
</svg>
