<svg width="20" height="21" viewBox="0 0 20 21" fill="none" xmlns="http://www.w3.org/2000/svg">
<rect y="0.285645" width="20" height="20" rx="10" fill="#1A1A1A"/>
<path d="M5.50018 12.9194C5.58177 12.8414 5.69238 12.7976 5.80771 12.7976H16.4487C16.6425 12.7976 16.7396 13.0219 16.6024 13.1531L14.4998 15.1638C14.4182 15.2418 14.3076 15.2856 14.1923 15.2856H3.55129C3.35746 15.2856 3.26042 15.0613 3.39753 14.9302L5.50018 12.9194Z" fill="url(#paint0_linear_13_10294)"/>
<path d="M5.50018 5.4075C5.58176 5.32947 5.69237 5.28564 5.80771 5.28564H16.4487C16.6425 5.28564 16.7396 5.50998 16.6024 5.64113L14.4998 7.65185C14.4182 7.72986 14.3076 7.77368 14.1923 7.77368H3.55129C3.35746 7.77368 3.26042 7.54934 3.39753 7.41822L5.50018 5.4075Z" fill="url(#paint1_linear_13_10294)"/>
<path d="M14.4998 9.13954C14.4182 9.06153 14.3076 9.01771 14.1923 9.01771H3.55129C3.35746 9.01771 3.26042 9.24205 3.39753 9.37317L5.50018 11.3839C5.58176 11.4619 5.69237 11.5057 5.80771 11.5057H16.4487C16.6425 11.5057 16.7396 11.2814 16.6024 11.1503L14.4998 9.13954Z" fill="url(#paint2_linear_13_10294)"/>
<defs>
<linearGradient id="paint0_linear_13_10294" x1="12.3475" y1="2.54261" x2="5.47833" y2="16.2902" gradientUnits="userSpaceOnUse">
<stop stop-color="#00FFA3"/>
<stop offset="1" stop-color="#DC1FFF"/>
</linearGradient>
<linearGradient id="paint1_linear_13_10294" x1="12.3475" y1="2.54261" x2="5.47833" y2="16.2902" gradientUnits="userSpaceOnUse">
<stop stop-color="#00FFA3"/>
<stop offset="1" stop-color="#DC1FFF"/>
</linearGradient>
<linearGradient id="paint2_linear_13_10294" x1="12.3475" y1="2.54261" x2="5.47833" y2="16.2902" gradientUnits="userSpaceOnUse">
<stop stop-color="#00FFA3"/>
<stop offset="1" stop-color="#DC1FFF"/>
</linearGradient>
</defs>
</svg>
