<svg width="21" height="21" viewBox="0 0 21 21" fill="none" xmlns="http://www.w3.org/2000/svg">
<path d="M19.6667 13.7368C19.6667 16.9618 17.0584 19.5702 13.8334 19.5702L14.7084 18.1118" stroke="#821FFF" stroke-width="1.30225" stroke-linecap="round" stroke-linejoin="round"/>
<path d="M1.33331 7.07015C1.33331 3.84515 3.94165 1.23682 7.16665 1.23682L6.29165 2.69515" stroke="#821FFF" stroke-width="1.30225" stroke-linecap="round" stroke-linejoin="round"/>
<path d="M6.01666 11.3201H8.35833C8.875 11.3201 9.3 11.7867 9.3 12.2617C9.3 12.7784 8.88333 13.2034 8.35833 13.2034H6.01666V11.3201Z" stroke="#821FFF" stroke-width="1.30225" stroke-miterlimit="10" stroke-linecap="round" stroke-linejoin="round"/>
<path d="M6.01666 13.2034H8.7C9.29166 13.2034 9.775 13.62 9.775 14.145C9.775 14.6617 9.29166 15.0867 8.7 15.0867H6.01666V13.2034Z" stroke="#821FFF" stroke-width="1.30225" stroke-miterlimit="10" stroke-linecap="round" stroke-linejoin="round"/>
<path d="M7.51666 15.0784V16.0117" stroke="#821FFF" stroke-width="1.30225" stroke-miterlimit="10" stroke-linecap="round" stroke-linejoin="round"/>
<path d="M7.51666 10.3867V11.32" stroke="#821FFF" stroke-width="1.30225" stroke-miterlimit="10" stroke-linecap="round" stroke-linejoin="round"/>
<path d="M12.875 13.2035C12.875 16.0451 10.575 18.3451 7.73334 18.3451C4.89168 18.3451 2.59167 16.0451 2.59167 13.2035C2.59167 10.3618 4.89168 8.06177 7.73334 8.06177C7.86668 8.06177 7.99168 8.07012 8.13334 8.07845C10.6583 8.27012 12.675 10.2868 12.8667 12.8118C12.8667 12.9368 12.875 13.0618 12.875 13.2035Z" stroke="#821FFF" stroke-width="1.30225" stroke-miterlimit="10" stroke-linecap="round" stroke-linejoin="round"/>
<path d="M18.4167 7.65337C18.4167 10.495 16.1167 12.7951 13.275 12.7951H12.8667C12.675 10.2701 10.6584 8.25336 8.13336 8.0617V7.65337C8.13336 4.8117 10.4334 2.51172 13.275 2.51172C16.1167 2.51172 18.4167 4.8117 18.4167 7.65337Z" stroke="#821FFF" stroke-width="1.30225" stroke-miterlimit="10" stroke-linecap="round" stroke-linejoin="round"/>
</svg>
