<svg width="44" height="44" viewBox="0 0 44 44" fill="none" xmlns="http://www.w3.org/2000/svg">
<rect width="44" height="44" rx="22" fill="white"/>
<path d="M24.9997 29C24.9997 30.6569 23.6566 32 21.9997 32C20.3429 32 18.9997 30.6569 18.9997 29M23.7962 16.2386C24.2317 15.7886 24.4997 15.1756 24.4997 14.5C24.4997 13.1193 23.3804 12 21.9997 12C20.619 12 19.4997 13.1193 19.4997 14.5C19.4997 15.1756 19.7677 15.7886 20.2032 16.2386M27.9997 21.2C27.9997 19.8209 27.3676 18.4982 26.2424 17.523C25.1171 16.5479 23.591 16 21.9997 16C20.4084 16 18.8823 16.5479 17.7571 17.523C16.6319 18.4982 15.9997 19.8209 15.9997 21.2C15.9997 23.4818 15.4339 25.1506 14.7278 26.3447C13.9231 27.7056 13.5207 28.3861 13.5366 28.5486C13.5548 28.7346 13.5882 28.7933 13.7391 28.9036C13.8709 29 14.5332 29 15.8579 29H28.1415C29.4662 29 30.1286 29 30.2604 28.9036C30.4112 28.7933 30.4447 28.7346 30.4629 28.5486C30.4787 28.3861 30.0764 27.7056 29.2717 26.3447C28.5656 25.1506 27.9997 23.4818 27.9997 21.2Z" stroke="#1A1B25" stroke-width="2" stroke-linecap="round" stroke-linejoin="round"/>
<circle cx="28" cy="17.5" r="4.5" fill="#DF1C41" stroke="#F6F8FA"/>
</svg>
