<svg width="339" height="286" viewBox="0 0 339 286" fill="none" xmlns="http://www.w3.org/2000/svg">
<path d="M0 40C0 21.1438 0 11.7157 5.85786 5.85786C11.7157 0 21.1438 0 40 0H229.25C243.533 0 250.674 0 255.774 3.48049C257.834 4.88656 259.613 6.66562 261.02 8.72587C264.5 13.8257 264.5 20.9671 264.5 35.25C264.5 49.5329 264.5 56.6743 267.98 61.7741C269.387 63.8344 271.166 65.6134 273.226 67.0195C278.326 70.5 285.467 70.5 299.75 70.5H301.75C317.947 70.5 326.046 70.5 331.535 74.916C332.659 75.8193 333.681 76.8415 334.584 77.9645C339 83.4544 339 91.553 339 107.75V246C339 264.856 339 274.284 333.142 280.142C327.284 286 317.856 286 299 286H40C21.1438 286 11.7157 286 5.85786 280.142C0 274.284 0 264.856 0 246V40Z" fill="white"/>
</svg>
