<svg width="28" height="28" viewBox="0 0 28 28" fill="none" xmlns="http://www.w3.org/2000/svg">
<rect width="28" height="28" rx="14" fill="#DFE1E7"/>
<rect x="4" y="4" width="20" height="20" rx="10" fill="white"/>
<path d="M9.40332 14.6932C11.0942 15.5912 12.8586 16.5311 14.2213 17.2584L18.9999 14.6932C17.2697 17.2636 15.828 19.4035 14.2213 21.7718C12.6118 19.4088 10.8343 16.8013 9.40332 14.6932ZM9.5871 13.9842L14.2266 11.5085L18.8056 13.9661L14.2292 16.4445L9.5871 13.9842ZM14.2213 10.7154L9.40332 13.2517L14.2003 6.22824L18.9999 13.2675L14.2213 10.7154Z" fill="#3AB83A"/>
<path d="M14.2212 17.2584L18.9999 14.6932C17.2696 17.2636 14.2212 21.7718 14.2212 21.7718V17.2584ZM14.2264 11.5085L18.8056 13.9661L14.2291 16.4445L14.2264 11.5085ZM14.2212 10.7156L14.2002 6.22824L18.9999 13.2675L14.2212 10.7156Z" fill="#0B8311"/>
<path d="M9.5874 13.9842L14.2271 14.365L18.8062 13.9685L14.2295 16.447L9.5874 13.9842Z" fill="#0B8311"/>
<path d="M14.2268 14.365L18.8059 13.9685L14.2294 16.447L14.2268 14.365Z" fill="#146714"/>
</svg>
