<svg width="40" height="41" viewBox="0 0 40 41" fill="none" xmlns="http://www.w3.org/2000/svg">
<rect y="0.5" width="40" height="40" rx="20" fill="#DFE1E7"/>
<rect x="10" y="10.5" width="20" height="20" rx="10" fill="white"/>
<path d="M15.4034 21.1932C17.0943 22.0912 18.8587 23.0311 20.2214 23.7584L25 21.1932C23.2698 23.7636 21.8281 25.9035 20.2214 28.2718C18.6119 25.9088 16.8344 23.3013 15.4034 21.1932ZM15.5872 20.4842L20.2267 18.0085L24.8057 20.4661L20.2293 22.9445L15.5872 20.4842ZM20.2214 17.2154L15.4034 19.7517L20.2004 12.7282L25 19.7675L20.2214 17.2154Z" fill="#3AB83A"/>
<path d="M20.2214 23.7584L25 21.1932C23.2698 23.7636 20.2214 28.2718 20.2214 28.2718V23.7584ZM20.2266 18.0085L24.8057 20.4661L20.2292 22.9445L20.2266 18.0085ZM20.2214 17.2156L20.2004 12.7282L25 19.7675L20.2214 17.2156Z" fill="#0B8311"/>
<path d="M15.5874 20.4842L20.2271 20.865L24.8062 20.4685L20.2295 22.947L15.5874 20.4842Z" fill="#0B8311"/>
<path d="M20.2269 20.865L24.806 20.4685L20.2295 22.947L20.2269 20.865Z" fill="#146714"/>
</svg>
