<svg width="36" height="36" viewBox="0 0 36 36" fill="none" xmlns="http://www.w3.org/2000/svg">
<rect width="36" height="36" rx="18" fill="#821FFF"/>
<g clip-path="url(#clip0_40_14154)">
<path d="M16.5758 12C17.5227 11.0721 18.8195 10.5 20.25 10.5C23.1495 10.5 25.5 12.8505 25.5 15.75C25.5 17.1805 24.9279 18.4774 24 19.4243M14.625 18.75L15.75 18V22.125M14.625 22.125H16.875M21 20.25C21 23.1495 18.6495 25.5 15.75 25.5C12.8505 25.5 10.5 23.1495 10.5 20.25C10.5 17.3505 12.8505 15 15.75 15C18.6495 15 21 17.3505 21 20.25Z" stroke="white" stroke-width="1.5" stroke-linecap="round" stroke-linejoin="round"/>
</g>
<defs>
<clipPath id="clip0_40_14154">
<rect width="18" height="18" fill="white" transform="translate(9 9)"/>
</clipPath>
</defs>
</svg>
