<svg width="162" height="59" viewBox="0 0 162 59" fill="none" xmlns="http://www.w3.org/2000/svg">
<path d="M9.61595 42.0097L1.47089 51.6712C1.16679 52.0319 1 52.4885 1 52.9603V56.5C1 57.6046 1.89543 58.5 3 58.5H159C160.105 58.5 161 57.6046 161 56.5V24.9138C161 24.3413 160.755 23.7962 160.326 23.4166L150.531 14.7416C150.431 14.6528 150.34 14.5542 150.259 14.4472L142.136 3.6547C141.15 2.34559 139.095 2.71193 138.623 4.28088L132.337 25.1585C131.778 27.0151 129.169 27.0698 128.532 25.2382L127.393 21.9573C127.16 21.2887 126.592 20.7927 125.898 20.653L112.007 17.8569C111.638 17.7826 111.298 17.6059 111.025 17.3469L103.737 10.4316C102.694 9.4417 100.979 9.84333 100.483 11.1934L93.6117 29.9191C93.062 31.417 91.0658 31.6998 90.1217 30.4135L83.3604 21.2007C83.2043 20.9879 83.0918 20.7464 83.0294 20.4899L79.0615 4.17357C78.682 2.61294 76.7106 2.11369 75.634 3.30557L68.5442 11.1546C68.3546 11.3645 68.2118 11.6121 68.1249 11.8812L61.4756 32.4933C61.2871 33.0777 60.8406 33.5431 60.2646 33.7556L51.3431 37.0479C50.8405 37.2334 50.4334 37.6128 50.2128 38.101L46.5894 46.1241C46.0754 47.2622 44.6556 47.6561 43.6286 46.9455L34.524 40.6457C34.3585 40.5312 34.2112 40.3924 34.0872 40.2339L27.5846 31.9274C26.56 30.6185 24.4784 31.0583 24.0709 32.6699L20.9033 45.1943C20.54 46.6306 18.7956 47.1871 17.6676 46.2265L12.4418 41.7762C11.5979 41.0575 10.3304 41.1622 9.61595 42.0097Z" fill="url(#paint0_linear_54_3614)"/>
<path d="M1 52.2297L9.61595 42.0097C10.3304 41.1622 11.5979 41.0575 12.4418 41.7762L17.6676 46.2265C18.7956 47.1871 20.54 46.6306 20.9033 45.1943L24.0709 32.6699C24.4784 31.0583 26.56 30.6185 27.5846 31.9274L34.0872 40.2339C34.2112 40.3924 34.3585 40.5312 34.524 40.6457L43.6286 46.9455C44.6556 47.6561 46.0754 47.2622 46.5894 46.1241L50.2128 38.101C50.4334 37.6128 50.8405 37.2334 51.3431 37.0479L60.2646 33.7556C60.8406 33.5431 61.2871 33.0777 61.4756 32.4933L68.1249 11.8812C68.2118 11.6121 68.3546 11.3645 68.5442 11.1546L75.634 3.30557C76.7106 2.11369 78.682 2.61294 79.0615 4.17357L83.0294 20.4899C83.0918 20.7464 83.2043 20.9879 83.3604 21.2007L90.1217 30.4135C91.0658 31.6998 93.062 31.417 93.6117 29.9191L100.483 11.1934C100.979 9.84333 102.694 9.4417 103.737 10.4316L111.025 17.3469C111.298 17.6059 111.638 17.7826 112.007 17.8569L125.898 20.653C126.592 20.7927 127.16 21.2887 127.393 21.9573L128.532 25.2382C129.169 27.0698 131.778 27.0151 132.337 25.1585L138.623 4.28088C139.095 2.71193 141.15 2.34559 142.136 3.6547L150.259 14.4472C150.34 14.5542 150.431 14.6528 150.531 14.7416L161 24.0135" stroke="#40C4AA" stroke-width="2" stroke-linecap="round"/>
<defs>
<linearGradient id="paint0_linear_54_3614" x1="81" y1="-44" x2="81" y2="58.5" gradientUnits="userSpaceOnUse">
<stop stop-color="#FF3B30"/>
<stop offset="0.0001" stop-color="#40C4AA"/>
<stop offset="0.703037" stop-color="#40C4AA" stop-opacity="0.190091"/>
<stop offset="1" stop-color="#40C4AA" stop-opacity="0"/>
</linearGradient>
</defs>
</svg>
