<svg width="18" height="14" viewBox="0 0 18 14" fill="none" xmlns="http://www.w3.org/2000/svg">
<path fill-rule="evenodd" clip-rule="evenodd" d="M2.58106 6.22156C4.40817 3.30868 6.77451 2 9.00003 2C11.2255 2 13.5919 3.30868 15.419 6.22156C15.7169 6.69656 15.7169 7.30344 15.419 7.77844C13.5919 10.6913 11.2255 12 9.00003 12C6.77451 12 4.40817 10.6913 2.58106 7.77844C2.28312 7.30344 2.28312 6.69656 2.58106 6.22156ZM17.1133 5.15882C15.0178 1.81811 12.0793 0 9.00003 0C5.92073 0 2.98224 1.81811 0.886783 5.15882C0.181213 6.28368 0.181212 7.71632 0.886782 8.84118C2.98224 12.1819 5.92072 14 9.00003 14C12.0793 14 15.0178 12.1819 17.1133 8.84118C17.8188 7.71632 17.8188 6.28368 17.1133 5.15882ZM8.9153 5.00176C8.94339 5.00059 8.97164 5 9.00003 5C10.1046 5 11 5.89543 11 7C11 8.10457 10.1046 9 9.00003 9C7.89546 9 7.00003 8.10457 7.00003 7C7.00003 6.97161 7.00062 6.94337 7.00179 6.91527C7.15768 6.97015 7.32537 7 7.50003 7C8.32846 7 9.00003 6.32843 9.00003 5.5C9.00003 5.32534 8.97018 5.15765 8.9153 5.00176ZM9.00003 3C6.79089 3 5.00003 4.79086 5.00003 7C5.00003 9.20914 6.79089 11 9.00003 11C11.2092 11 13 9.20914 13 7C13 4.79086 11.2092 3 9.00003 3Z" fill="#818898"/>
</svg>
