<svg width="137" height="36" viewBox="0 0 137 36" fill="none" xmlns="http://www.w3.org/2000/svg">
<path d="M19.4999 2.99998L6.14013 19.0318C5.61692 19.6596 5.35531 19.9735 5.35131 20.2387C5.34784 20.4692 5.45054 20.6884 5.62983 20.8333C5.83607 21 6.24471 21 7.062 21H17.9999L16.4999 33L29.8598 16.9682C30.383 16.3403 30.6446 16.0264 30.6486 15.7613C30.6521 15.5308 30.5493 15.3115 30.3701 15.1666C30.1638 15 29.7552 15 28.9379 15H17.9999L19.4999 2.99998Z" stroke="#821FFF" stroke-width="3" stroke-linecap="round" stroke-linejoin="round"/>
<path d="M52.7773 27.2812C51.1602 27.2812 49.7422 26.9258 48.5234 26.2148C47.3047 25.5039 46.3555 24.4844 45.6758 23.1562C44.9961 21.8203 44.6562 20.2266 44.6562 18.375C44.6562 16.5078 45 14.9102 45.6875 13.582C46.375 12.2539 47.3281 11.2383 48.5469 10.5352C49.7734 9.82422 51.1836 9.46875 52.7773 9.46875C53.7695 9.46875 54.6992 9.625 55.5664 9.9375C56.4336 10.25 57.2031 10.6992 57.875 11.2852C58.5469 11.8711 59.0898 12.5781 59.5039 13.4062C59.918 14.2266 60.1641 15.1445 60.2422 16.1602H57.0547C56.9609 15.5586 56.793 15.0195 56.5508 14.543C56.3164 14.0586 56.0117 13.6484 55.6367 13.3125C55.2695 12.9688 54.8477 12.707 54.3711 12.5273C53.9023 12.3477 53.3906 12.2578 52.8359 12.2578C51.7969 12.2578 50.9102 12.5039 50.1758 12.9961C49.4414 13.4883 48.8789 14.1914 48.4883 15.1055C48.1055 16.0195 47.9141 17.1094 47.9141 18.375C47.9141 19.6406 48.1016 20.7305 48.4766 21.6445C48.8594 22.5586 49.418 23.2617 50.1523 23.7539C50.8867 24.2461 51.7852 24.4922 52.8477 24.4922C53.4102 24.4922 53.9336 24.3984 54.418 24.2109C54.9102 24.0234 55.3398 23.7578 55.707 23.4141C56.082 23.0703 56.3867 22.6602 56.6211 22.1836C56.8555 21.6992 57 21.168 57.0547 20.5898H60.2422C60.1797 21.5586 59.9531 22.4531 59.5625 23.2734C59.1797 24.0938 58.6562 24.8047 57.9922 25.4062C57.3281 26 56.5547 26.4609 55.6719 26.7891C54.7891 27.1172 53.8242 27.2812 52.7773 27.2812ZM61.9766 27V14.625H64.9062V16.7695H65C65.2266 16.0195 65.5898 15.4453 66.0898 15.0469C66.5898 14.6406 67.2109 14.4375 67.9531 14.4375C68.1406 14.4375 68.3203 14.4492 68.4922 14.4727C68.6641 14.4883 68.8086 14.5117 68.9258 14.543V17.332C68.793 17.2852 68.5898 17.2461 68.3164 17.2148C68.0508 17.1758 67.7812 17.1562 67.5078 17.1562C67.0547 17.1562 66.6367 17.2617 66.2539 17.4727C65.8789 17.6758 65.5781 17.9844 65.3516 18.3984C65.1328 18.8125 65.0234 19.3281 65.0234 19.9453V27H61.9766ZM71.3047 32.0625V29.5078H72.7578C73.0547 29.5078 73.2852 29.457 73.4492 29.3555C73.6133 29.2617 73.7383 29.1367 73.8242 28.9805C73.9102 28.8242 73.9805 28.668 74.0352 28.5117C74.0352 28.5039 74.0586 28.4219 74.1055 28.2656C74.1523 28.1094 74.2031 27.9336 74.2578 27.7383C74.3203 27.543 74.375 27.3711 74.4219 27.2227C74.4688 27.0742 74.4922 27 74.4922 27L69.8633 14.625H73.1094L76.1562 23.7188H76.2031L79.2266 14.625H82.4375L76.7656 29.8945C76.5859 30.3789 76.3359 30.7812 76.0156 31.1016C75.7031 31.4219 75.3047 31.6602 74.8203 31.8164C74.3359 31.9805 73.7578 32.0625 73.0859 32.0625H71.3047ZM83.7852 31.875V14.625H86.8086V16.5938H86.8906C87.2578 15.9062 87.7578 15.375 88.3906 15C89.0234 14.625 89.7539 14.4375 90.582 14.4375C91.5586 14.4375 92.4336 14.6836 93.207 15.1758C93.9805 15.668 94.5898 16.3867 95.0352 17.332C95.4805 18.2773 95.7031 19.4336 95.7031 20.8008C95.7031 22.1445 95.4844 23.293 95.0469 24.2461C94.6094 25.1914 94.0039 25.918 93.2305 26.4258C92.457 26.9258 91.5703 27.1758 90.5703 27.1758C89.7422 27.1758 89.0039 26.9961 88.3555 26.6367C87.7148 26.2695 87.2266 25.7578 86.8906 25.1016H86.832V31.875H83.7852ZM86.7031 20.8008C86.7031 21.5898 86.8242 22.2773 87.0664 22.8633C87.3086 23.4492 87.6523 23.8984 88.0977 24.2109C88.5508 24.5234 89.082 24.6797 89.6914 24.6797C90.2773 24.6797 90.7891 24.5312 91.2266 24.2344C91.6641 23.9375 92.0039 23.5039 92.2461 22.9336C92.4883 22.3555 92.6094 21.6445 92.6094 20.8008C92.6094 19.9648 92.4883 19.2578 92.2461 18.6797C92.0039 18.1016 91.6641 17.6641 91.2266 17.3672C90.7891 17.0703 90.2773 16.9219 89.6914 16.9219C89.082 16.9219 88.5508 17.082 88.0977 17.4023C87.6523 17.7148 87.3086 18.1602 87.0664 18.7383C86.8242 19.3164 86.7031 20.0039 86.7031 20.8008ZM101.914 27.0586C101.164 27.0586 100.5 26.9414 99.9219 26.707C99.3516 26.4727 98.9023 26.1055 98.5742 25.6055C98.2539 25.1055 98.0938 24.457 98.0938 23.6602V11.5547H101.152V23.1562C101.152 23.5547 101.211 23.8555 101.328 24.0586C101.445 24.2617 101.609 24.3984 101.82 24.4688C102.031 24.5312 102.273 24.5625 102.547 24.5625C102.719 24.5625 102.879 24.5586 103.027 24.5508C103.176 24.543 103.297 24.5312 103.391 24.5156L103.59 26.9766C103.418 26.9922 103.191 27.0078 102.91 27.0234C102.629 27.0469 102.297 27.0586 101.914 27.0586ZM96.3359 17.0625V14.625H103.52V17.0625H96.3359ZM110.516 27.1875C109.297 27.1875 108.227 26.9219 107.305 26.3906C106.391 25.8594 105.68 25.1172 105.172 24.1641C104.664 23.2109 104.41 22.0977 104.41 20.8242C104.41 19.5508 104.664 18.4375 105.172 17.4844C105.68 16.5234 106.391 15.7773 107.305 15.2461C108.227 14.707 109.297 14.4375 110.516 14.4375C111.742 14.4375 112.812 14.707 113.727 15.2461C114.641 15.7773 115.352 16.5234 115.859 17.4844C116.367 18.4375 116.621 19.5508 116.621 20.8242C116.621 22.0977 116.367 23.2109 115.859 24.1641C115.352 25.1172 114.641 25.8594 113.727 26.3906C112.812 26.9219 111.742 27.1875 110.516 27.1875ZM110.516 24.7266C111.109 24.7266 111.633 24.5664 112.086 24.2461C112.539 23.9258 112.891 23.4727 113.141 22.8867C113.398 22.3008 113.527 21.6133 113.527 20.8242C113.527 20.0273 113.398 19.3359 113.141 18.75C112.891 18.1562 112.539 17.6992 112.086 17.3789C111.633 17.0508 111.109 16.8867 110.516 16.8867C109.914 16.8867 109.387 17.0508 108.934 17.3789C108.488 17.6992 108.137 18.1523 107.879 18.7383C107.629 19.3242 107.504 20.0195 107.504 20.8242C107.504 21.6133 107.629 22.3008 107.879 22.8867C108.137 23.4727 108.492 23.9258 108.945 24.2461C109.398 24.5664 109.922 24.7266 110.516 24.7266ZM118.297 27V14.625H121.355V27H118.297ZM119.82 12.7266C119.328 12.7266 118.906 12.5586 118.555 12.2227C118.211 11.8867 118.039 11.4805 118.039 11.0039C118.039 10.5273 118.211 10.1211 118.555 9.78516C118.906 9.44922 119.328 9.28125 119.82 9.28125C120.312 9.28125 120.73 9.44922 121.074 9.78516C121.426 10.1211 121.602 10.5273 121.602 11.0039C121.602 11.4805 121.426 11.8867 121.074 12.2227C120.73 12.5586 120.312 12.7266 119.82 12.7266ZM126.594 19.957V27H123.535V14.625H126.5V16.793H126.547C126.828 16.1055 127.285 15.543 127.918 15.1055C128.559 14.6602 129.363 14.4375 130.332 14.4375C131.199 14.4375 131.98 14.6289 132.676 15.0117C133.371 15.3867 133.922 15.9375 134.328 16.6641C134.734 17.3906 134.938 18.2695 134.938 19.3008V27H131.891V19.7695C131.891 18.8789 131.656 18.1992 131.188 17.7305C130.719 17.2539 130.086 17.0156 129.289 17.0156C128.781 17.0156 128.324 17.1211 127.918 17.332C127.512 17.543 127.188 17.8672 126.945 18.3047C126.711 18.7344 126.594 19.2852 126.594 19.957Z" fill="#821FFF"/>
</svg>
