<svg width="20" height="20" viewBox="0 0 20 20" fill="none" xmlns="http://www.w3.org/2000/svg">
<rect width="20" height="20" rx="10" fill="#F5B300"/>
<path d="M6.48653 4.59794C6.85377 4.6981 7.22101 4.76487 7.58825 4.86502C7.95549 4.96518 8.32273 5.03195 8.68997 5.13211C8.79013 5.16549 8.82351 5.13211 8.8569 5.03195C8.99044 4.4644 9.12398 3.93023 9.25752 3.36268C9.29091 3.26252 9.32429 3.22913 9.42445 3.26252C9.75831 3.36268 10.0588 3.42945 10.3926 3.49622C10.4928 3.5296 10.4928 3.56299 10.4594 3.62976C10.3259 4.16393 10.1923 4.73148 10.0588 5.26565C10.0588 5.29903 10.0588 5.33242 10.0254 5.39919C10.2925 5.46596 10.5929 5.53273 10.86 5.5995C10.8934 5.5995 10.9268 5.53273 10.9602 5.49935C11.0603 5.06534 11.1605 4.66471 11.294 4.2307C11.3274 4.09716 11.3608 3.96361 11.3942 3.83007C11.3942 3.7633 11.4276 3.72992 11.4944 3.7633C11.8282 3.86346 12.1621 3.93023 12.5293 4.03039C12.5627 4.03039 12.5627 4.06377 12.5961 4.06377C12.4959 4.49778 12.3958 4.89841 12.2956 5.29903C12.2622 5.46596 12.2288 5.63289 12.1621 5.79982C12.1287 5.89997 12.1621 5.93336 12.2622 5.96674C12.6295 6.13367 12.9967 6.3006 13.3639 6.46753C13.6978 6.66784 13.9983 6.93492 14.232 7.26878C14.5324 7.76956 14.5658 8.30373 14.4323 8.8379C14.3321 9.20514 14.1986 9.53899 13.9315 9.80608C13.7312 10.0064 13.4641 10.1399 13.197 10.2401C13.1636 10.2401 13.1302 10.2735 13.0635 10.2735C13.197 10.3736 13.3306 10.4404 13.4641 10.5406C13.8647 10.841 14.1318 11.2083 14.2653 11.6757C14.3321 12.0429 14.2987 12.4435 14.1986 12.8108C14.065 13.2782 13.8981 13.6788 13.5976 14.046C13.2304 14.48 12.763 14.7137 12.2288 14.7805C11.5277 14.8807 10.86 14.8139 10.1923 14.7137C10.0922 14.6804 10.0254 14.7137 9.992 14.8139C9.85846 15.3481 9.72492 15.9156 9.59138 16.4498C9.55799 16.5833 9.55799 16.6167 9.39106 16.5499C9.0906 16.4832 8.75674 16.383 8.45627 16.3162C8.35611 16.2829 8.35611 16.2495 8.3895 16.1827C8.52304 15.6152 8.65658 15.0476 8.82351 14.5134C8.82351 14.4467 8.8569 14.4133 8.79013 14.3799C8.52304 14.3131 8.25596 14.2463 7.95549 14.1796C7.88872 14.48 7.78856 14.7805 7.72179 15.081C7.65502 15.3815 7.55486 15.6819 7.48809 15.9824C7.45471 16.0492 7.45471 16.0826 7.35455 16.0492C7.0207 15.949 6.68684 15.8822 6.35298 15.8155C6.25283 15.7821 6.25283 15.7487 6.28621 15.6819C6.41976 15.1144 6.5533 14.5468 6.72023 14.0126C6.72023 13.9793 6.75361 13.9459 6.75361 13.8791C5.98574 13.6788 5.21788 13.4785 4.41663 13.2782C4.4834 13.1446 4.51678 13.0445 4.58355 12.9109C4.7171 12.6105 4.85064 12.31 4.95079 12.0429C4.98418 11.9427 5.01757 11.9427 5.11772 11.9427C5.35142 12.0095 5.6185 12.0763 5.8522 12.1097C6.11929 12.1764 6.3196 12.0429 6.35298 11.8092C6.787 10.1065 7.22101 8.40389 7.62163 6.66784C7.6884 6.40076 7.52148 6.10029 7.22101 6.00013C6.92054 5.89997 6.62007 5.8332 6.35298 5.76643C6.28621 5.76643 6.25283 5.73305 6.28621 5.66628C6.38637 5.29903 6.48653 4.89841 6.58668 4.53117C6.45314 4.63132 6.45314 4.63132 6.48653 4.59794ZM8.18919 12.8442C8.22257 12.8442 8.25596 12.8775 8.25596 12.8775C8.79013 13.0111 9.35768 13.178 9.92523 13.2114C10.3259 13.2448 10.6931 13.2448 11.0603 13.1112C11.6947 12.9109 11.9617 12.0763 11.5945 11.5421C11.4276 11.275 11.1605 11.1081 10.8934 10.9412C10.2925 10.6073 9.59138 10.4738 8.92367 10.3402C8.82351 10.3069 8.82351 10.3402 8.79013 10.4404C8.72336 10.7743 8.6232 11.0747 8.55643 11.4086C8.42289 11.876 8.32273 12.3434 8.18919 12.8442ZM10.9936 9.43884C11.0603 9.43884 11.2273 9.40545 11.3608 9.37207C11.9951 9.23852 12.329 8.50404 11.9951 7.93649C11.8282 7.63602 11.5277 7.43571 11.2273 7.30216C10.7599 7.10185 10.2925 7.0017 9.79169 6.86815C9.69153 6.83477 9.65815 6.86815 9.62476 6.96831C9.45784 7.6694 9.29091 8.33712 9.0906 9.03821C9.05721 9.10498 9.0906 9.13837 9.15737 9.17175C9.29091 9.20514 9.39107 9.23852 9.52461 9.27191C10.0254 9.33868 10.4594 9.43884 10.9936 9.43884Z" fill="white"/>
</svg>
