<svg width="20" height="20" viewBox="0 0 20 20" fill="none" xmlns="http://www.w3.org/2000/svg">
<rect width="20" height="20" rx="10" fill="white"/>
<path d="M5.40344 10.6932C7.09432 11.5912 8.85871 12.5311 10.2214 13.2584L15 10.6932C13.2698 13.2637 11.8281 15.4036 10.2214 17.7719C8.61192 15.4088 6.83441 12.8013 5.40344 10.6932ZM5.58723 9.98421L10.2267 7.50857L14.8057 9.96611L10.2293 12.4445L5.58723 9.98421ZM10.2214 6.7154L5.40344 9.25175L10.2004 2.22827L15 9.26748L10.2214 6.7154Z" fill="#3AB83A"/>
<path d="M10.2214 13.2584L15 10.6932C13.2698 13.2637 10.2214 17.7719 10.2214 17.7719V13.2584ZM10.2266 7.50857L14.8057 9.96611L10.2292 12.4445L10.2266 7.50857ZM10.2214 6.71559L10.2004 2.22827L15 9.26748L10.2214 6.71559Z" fill="#0B8311"/>
<path d="M5.5874 9.98424L10.2271 10.365L14.8062 9.96851L10.2295 12.4471L5.5874 9.98424Z" fill="#0B8311"/>
<path d="M10.2269 10.365L14.806 9.96851L10.2295 12.4471L10.2269 10.365Z" fill="#146714"/>
</svg>
