<svg width="450" height="19" viewBox="0 0 450 19" fill="none" xmlns="http://www.w3.org/2000/svg">
<line y1="9" x2="170.5" y2="9" stroke="#C1C7D0"/>
<path d="M194.75 9.6875C194.75 10.5977 194.584 11.3867 194.252 12.0547C193.924 12.7227 193.463 13.2383 192.869 13.6016C192.279 13.9609 191.594 14.1406 190.812 14.1406C190.023 14.1406 189.332 13.959 188.738 13.5957C188.145 13.2324 187.682 12.7188 187.35 12.0547C187.018 11.3867 186.852 10.5977 186.852 9.6875C186.852 8.77344 187.018 7.98438 187.35 7.32031C187.682 6.65234 188.145 6.13867 188.738 5.7793C189.332 5.41602 190.023 5.23438 190.812 5.23438C191.594 5.23438 192.279 5.41602 192.869 5.7793C193.463 6.13867 193.924 6.65234 194.252 7.32031C194.584 7.98438 194.75 8.77344 194.75 9.6875ZM193.426 9.6875C193.426 9.01562 193.32 8.43555 193.109 7.94727C192.898 7.45508 192.598 7.07812 192.207 6.81641C191.816 6.55078 191.35 6.41797 190.807 6.41797C190.256 6.41797 189.785 6.55078 189.395 6.81641C189.004 7.07812 188.705 7.45508 188.498 7.94727C188.291 8.43555 188.189 9.01562 188.193 9.6875C188.189 10.3594 188.291 10.9414 188.498 11.4336C188.705 11.9219 189.004 12.2988 189.395 12.5645C189.789 12.8262 190.262 12.957 190.812 12.957C191.355 12.957 191.822 12.8262 192.213 12.5645C192.604 12.2988 192.902 11.9219 193.109 11.4336C193.32 10.9414 193.426 10.3594 193.426 9.6875ZM195.699 14V7.8125H196.9V8.83203H196.936C197.049 8.48828 197.229 8.2168 197.475 8.01758C197.725 7.81836 198.039 7.71875 198.418 7.71875C198.512 7.71875 198.598 7.72461 198.676 7.73633C198.758 7.74414 198.824 7.75391 198.875 7.76562V8.96094C198.82 8.94141 198.73 8.92383 198.605 8.9082C198.484 8.88867 198.354 8.87891 198.213 8.87891C197.986 8.87891 197.777 8.93164 197.586 9.03711C197.395 9.13867 197.24 9.29688 197.123 9.51172C197.01 9.72656 196.953 10 196.953 10.332V14H195.699ZM205.93 14.1406C205.234 14.1406 204.635 14.0215 204.131 13.7832C203.631 13.5449 203.244 13.2031 202.971 12.7578C202.697 12.3125 202.561 11.7773 202.561 11.1523H203.867C203.871 11.7227 204.057 12.1738 204.424 12.5059C204.795 12.834 205.305 12.998 205.953 12.998C206.348 12.998 206.686 12.9395 206.967 12.8223C207.248 12.7051 207.463 12.541 207.611 12.3301C207.764 12.1191 207.84 11.875 207.84 11.5977C207.84 11.3516 207.789 11.1543 207.688 11.0059C207.59 10.8574 207.455 10.7402 207.283 10.6543C207.111 10.5684 206.918 10.498 206.703 10.4434C206.488 10.3887 206.27 10.332 206.047 10.2734L205.086 10.0332C204.793 9.95898 204.508 9.86719 204.23 9.75781C203.953 9.64844 203.701 9.50781 203.475 9.33594C203.252 9.16406 203.074 8.95312 202.941 8.70312C202.809 8.44922 202.742 8.14453 202.742 7.78906C202.742 7.27344 202.869 6.82422 203.123 6.44141C203.377 6.05859 203.736 5.76172 204.201 5.55078C204.67 5.33984 205.221 5.23438 205.854 5.23438C206.486 5.23438 207.031 5.3457 207.488 5.56836C207.945 5.79102 208.299 6.10547 208.549 6.51172C208.803 6.91797 208.938 7.39453 208.953 7.94141H207.67C207.639 7.46484 207.463 7.08203 207.143 6.79297C206.826 6.50391 206.387 6.35938 205.824 6.35938C205.457 6.35938 205.143 6.41797 204.881 6.53516C204.623 6.64844 204.424 6.81055 204.283 7.02148C204.146 7.23242 204.078 7.47656 204.078 7.75391C204.078 7.98047 204.145 8.16602 204.277 8.31055C204.41 8.45117 204.578 8.56641 204.781 8.65625C204.988 8.74609 205.205 8.82031 205.432 8.87891C205.658 8.93359 205.865 8.98438 206.053 9.03125L206.803 9.21875C207.244 9.32812 207.643 9.47461 207.998 9.6582C208.357 9.8418 208.643 10.0879 208.854 10.3965C209.064 10.7012 209.17 11.0918 209.17 11.5684C209.17 12.0957 209.039 12.5527 208.777 12.9395C208.52 13.3223 208.148 13.6191 207.664 13.8301C207.18 14.0371 206.602 14.1406 205.93 14.1406ZM210.148 14V7.8125H211.402V14H210.148ZM210.781 6.72852C210.562 6.72852 210.377 6.6543 210.225 6.50586C210.076 6.35742 210.004 6.17969 210.008 5.97266C210.004 5.75781 210.076 5.57812 210.225 5.43359C210.377 5.28516 210.562 5.21094 210.781 5.21094C210.992 5.21094 211.172 5.28516 211.32 5.43359C211.473 5.57812 211.551 5.75781 211.555 5.97266C211.551 6.17969 211.473 6.35742 211.32 6.50586C211.172 6.6543 210.992 6.72852 210.781 6.72852ZM215.34 16.5312C214.832 16.5312 214.383 16.4551 213.992 16.3027C213.605 16.1543 213.295 15.9375 213.061 15.6523C212.826 15.3672 212.686 15.0234 212.639 14.6211H213.898C213.977 14.918 214.145 15.1406 214.402 15.2891C214.664 15.4375 214.979 15.5117 215.346 15.5117C215.838 15.5117 216.223 15.3828 216.5 15.125C216.781 14.8711 216.922 14.4961 216.922 14V12.9922H216.898C216.727 13.3164 216.488 13.5723 216.184 13.7598C215.883 13.9434 215.508 14.0352 215.059 14.0352C214.527 14.0352 214.068 13.9082 213.682 13.6543C213.299 13.3965 213.002 13.0332 212.791 12.5645C212.584 12.0957 212.48 11.5391 212.48 10.8945C212.48 10.25 212.59 9.68945 212.809 9.21289C213.031 8.73633 213.338 8.36914 213.729 8.11133C214.123 7.84961 214.57 7.71875 215.07 7.71875C215.445 7.71875 215.752 7.78125 215.99 7.90625C216.232 8.02734 216.424 8.17383 216.564 8.3457C216.709 8.51758 216.818 8.67578 216.893 8.82031H216.934V7.8125H218.17V13.9766C218.17 14.582 218.043 15.0723 217.789 15.4473C217.539 15.8223 217.199 16.0957 216.77 16.2676C216.344 16.4434 215.867 16.5312 215.34 16.5312ZM215.328 12.9805C215.836 12.9805 216.229 12.8008 216.506 12.4414C216.783 12.0781 216.922 11.5664 216.922 10.9062C216.922 10.457 216.859 10.0762 216.734 9.76367C216.613 9.45117 216.434 9.21289 216.195 9.04883C215.961 8.88086 215.68 8.79688 215.352 8.79688C215.004 8.79688 214.711 8.88672 214.473 9.06641C214.238 9.24219 214.059 9.48828 213.934 9.80469C213.812 10.1211 213.752 10.4883 213.752 10.9062C213.752 11.3242 213.811 11.6895 213.928 12.002C214.049 12.3105 214.227 12.5508 214.461 12.7227C214.695 12.8945 214.984 12.9805 215.328 12.9805ZM220.631 10.4258V14H219.371V7.8125H220.596V8.85547H220.619C220.756 8.53125 220.979 8.26172 221.287 8.04688C221.596 7.82812 221.992 7.71875 222.477 7.71875C222.906 7.71875 223.295 7.81055 223.643 7.99414C223.994 8.17773 224.273 8.45117 224.48 8.81445C224.688 9.17383 224.791 9.62109 224.791 10.1562V14H223.537V10.3086C223.537 9.81641 223.408 9.44336 223.15 9.18945C222.896 8.93555 222.553 8.80859 222.119 8.80859C221.842 8.80859 221.59 8.86523 221.363 8.97852C221.141 9.0918 220.963 9.26758 220.83 9.50586C220.697 9.74414 220.631 10.0508 220.631 10.4258ZM229.133 14V7.8125H230.387V14H229.133ZM229.766 6.72852C229.547 6.72852 229.361 6.6543 229.209 6.50586C229.061 6.35742 228.988 6.17969 228.992 5.97266C228.988 5.75781 229.061 5.57812 229.209 5.43359C229.361 5.28516 229.547 5.21094 229.766 5.21094C229.977 5.21094 230.156 5.28516 230.305 5.43359C230.457 5.57812 230.535 5.75781 230.539 5.97266C230.535 6.17969 230.457 6.35742 230.305 6.50586C230.156 6.6543 229.977 6.72852 229.766 6.72852ZM232.842 10.4258V14H231.582V7.8125H232.807V8.85547H232.83C232.967 8.53125 233.189 8.26172 233.498 8.04688C233.807 7.82812 234.203 7.71875 234.688 7.71875C235.117 7.71875 235.506 7.81055 235.854 7.99414C236.205 8.17773 236.484 8.45117 236.691 8.81445C236.898 9.17383 237.002 9.62109 237.002 10.1562V14H235.748V10.3086C235.748 9.81641 235.619 9.44336 235.361 9.18945C235.107 8.93555 234.764 8.80859 234.33 8.80859C234.053 8.80859 233.801 8.86523 233.574 8.97852C233.352 9.0918 233.174 9.26758 233.041 9.50586C232.908 9.74414 232.842 10.0508 232.842 10.4258ZM242.762 14L240.898 7.8125H242.199L243.418 12.2891H243.441L244.689 7.8125H245.938L247.162 12.2656H247.186L248.422 7.8125H249.723L247.859 14H246.6L245.322 9.61133H245.299L244.004 14H242.762ZM250.473 14V7.8125H251.727V14H250.473ZM251.105 6.72852C250.887 6.72852 250.701 6.6543 250.549 6.50586C250.4 6.35742 250.328 6.17969 250.332 5.97266C250.328 5.75781 250.4 5.57812 250.549 5.43359C250.701 5.28516 250.887 5.21094 251.105 5.21094C251.316 5.21094 251.496 5.28516 251.645 5.43359C251.797 5.57812 251.875 5.75781 251.879 5.97266C251.875 6.17969 251.797 6.35742 251.645 6.50586C251.496 6.6543 251.316 6.72852 251.105 6.72852ZM255.096 14.0352C254.775 14.0352 254.48 13.9805 254.211 13.8711C253.945 13.7617 253.73 13.5898 253.566 13.3555C253.406 13.1211 253.326 12.8164 253.326 12.4414V6.29492H254.586V12.2363C254.586 12.4551 254.617 12.6172 254.68 12.7227C254.746 12.8281 254.834 12.8965 254.943 12.9277C255.053 12.9551 255.172 12.9688 255.301 12.9688C255.379 12.9688 255.453 12.9668 255.523 12.9629C255.594 12.9551 255.648 12.9473 255.688 12.9395L255.816 13.9824C255.742 13.9941 255.645 14.0059 255.523 14.0176C255.402 14.0293 255.26 14.0352 255.096 14.0352ZM252.436 8.84375V7.8125H255.77V8.84375H252.436ZM258.031 10.373V14H256.777V5.375H258.014V8.79688H258.043C258.184 8.47656 258.41 8.20898 258.723 7.99414C259.035 7.77539 259.434 7.66602 259.918 7.66602C260.344 7.66602 260.73 7.75781 261.078 7.94141C261.43 8.125 261.709 8.39648 261.916 8.75586C262.123 9.11523 262.227 9.5625 262.227 10.0977V14H260.973V10.25C260.973 9.76172 260.844 9.39062 260.586 9.13672C260.332 8.88281 259.99 8.75586 259.561 8.75586C259.283 8.75586 259.027 8.8125 258.793 8.92578C258.562 9.03906 258.377 9.21484 258.236 9.45312C258.1 9.69141 258.031 9.99805 258.031 10.373Z" fill="#818898"/>
<line x1="279.5" y1="9" x2="450" y2="9" stroke="#C1C7D0"/>
</svg>
