<svg width="162" height="58" viewBox="0 0 162 58" fill="none" xmlns="http://www.w3.org/2000/svg">
<path d="M152.384 41.5097L160.529 51.1712C160.833 51.5319 161 51.9885 161 52.4603V56C161 57.1046 160.105 58 159 58H3C1.89543 58 1 57.1046 1 56V24.4138C1 23.8413 1.24536 23.2962 1.67397 22.9166L11.4687 14.2416C11.569 14.1528 11.66 14.0542 11.7406 13.9472L19.8643 3.1547C20.8497 1.84559 22.9049 2.21193 23.3773 3.78088L29.6633 24.6585C30.2223 26.5151 32.8313 26.5698 33.4676 24.7382L34.6075 21.4573C34.8398 20.7887 35.4081 20.2927 36.102 20.153L49.9931 17.3569C50.3619 17.2826 50.7023 17.1059 50.9751 16.8469L58.2626 9.9316C59.3058 8.9417 61.0215 9.34333 61.5169 10.6934L68.3883 29.4191C68.938 30.917 70.9342 31.1998 71.8783 29.9135L78.6396 20.7007C78.7957 20.4879 78.9082 20.2464 78.9706 19.9899L82.9385 3.67357C83.318 2.11294 85.2894 1.61369 86.366 2.80557L93.4558 10.6546C93.6454 10.8645 93.7882 11.1121 93.8751 11.3812L100.524 31.9933C100.713 32.5777 101.159 33.0431 101.735 33.2556L110.657 36.5479C111.159 36.7334 111.567 37.1128 111.787 37.601L115.411 45.6241C115.925 46.7622 117.344 47.1561 118.371 46.4455L127.476 40.1457C127.641 40.0312 127.789 39.8924 127.913 39.7339L134.415 31.4274C135.44 30.1185 137.522 30.5583 137.929 32.1699L141.097 44.6943C141.46 46.1306 143.204 46.6871 144.332 45.7265L149.558 41.2762C150.402 40.5575 151.67 40.6622 152.384 41.5097Z" fill="url(#paint0_linear_40_14449)"/>
<path d="M161 51.7297L152.384 41.5097C151.67 40.6622 150.402 40.5575 149.558 41.2762L144.332 45.7265C143.204 46.6871 141.46 46.1306 141.097 44.6943L137.929 32.1699C137.522 30.5583 135.44 30.1185 134.415 31.4274L127.913 39.7339C127.789 39.8924 127.641 40.0312 127.476 40.1457L118.371 46.4455C117.344 47.1561 115.925 46.7622 115.411 45.6241L111.787 37.601C111.567 37.1128 111.159 36.7334 110.657 36.5479L101.735 33.2556C101.159 33.0431 100.713 32.5777 100.524 31.9933L93.8751 11.3812C93.7882 11.1121 93.6454 10.8645 93.4558 10.6546L86.366 2.80557C85.2894 1.61369 83.318 2.11294 82.9385 3.67357L78.9706 19.9899C78.9082 20.2464 78.7957 20.4879 78.6396 20.7007L71.8783 29.9135C70.9342 31.1998 68.938 30.917 68.3883 29.4191L61.5169 10.6934C61.0215 9.34333 59.3058 8.9417 58.2626 9.9316L50.9751 16.8469C50.7023 17.1059 50.3619 17.2826 49.9931 17.3569L36.102 20.153C35.4081 20.2927 34.8398 20.7887 34.6075 21.4573L33.4676 24.7382C32.8313 26.5698 30.2223 26.5151 29.6633 24.6585L23.3773 3.78088C22.9049 2.21193 20.8497 1.84559 19.8643 3.1547L11.7406 13.9472C11.66 14.0542 11.569 14.1528 11.4687 14.2416L1 23.5135" stroke="#DF1C41" stroke-width="2" stroke-linecap="round"/>
<defs>
<linearGradient id="paint0_linear_40_14449" x1="81" y1="-44.5" x2="81" y2="58" gradientUnits="userSpaceOnUse">
<stop stop-color="#FF3B30"/>
<stop offset="0.0001" stop-color="#40C4AA"/>
<stop offset="0.703037" stop-color="#DF1C41" stop-opacity="0.190091"/>
<stop offset="1" stop-color="#DF1C41" stop-opacity="0"/>
</linearGradient>
</defs>
</svg>
