<svg width="102" height="58" viewBox="0 0 102 58" fill="none" xmlns="http://www.w3.org/2000/svg">
<path d="M5.70442 42.8013L1.23059 51.2921C1.07915 51.5795 1 51.8995 1 52.2244V56C1 57.1046 1.89543 58 3 58H99C100.105 58 101 57.1046 101 56V24.1481C101 23.7352 100.872 23.3324 100.634 22.995L94.4639 14.2513C94.3966 14.156 94.3379 14.055 94.2882 13.9495L90.3575 5.59437C89.5317 3.83885 86.9411 4.16928 86.5823 6.07589L83.7001 21.392C83.3187 23.4189 80.43 23.4591 79.9923 21.4435C79.8492 20.7842 79.3658 20.2511 78.7236 20.0442L70.6965 17.459C70.2629 17.3194 69.89 17.0359 69.6394 16.6554L66.4056 11.7455C65.4374 10.2755 63.1794 10.6828 62.7859 12.3985L59.3945 27.1857C58.9676 29.0472 56.4235 29.3084 55.6273 27.5724L52.4446 20.6338C52.3669 20.4644 52.3132 20.2849 52.2852 20.1005L50.1007 5.72804C49.8151 3.84907 47.3161 3.39032 46.3818 5.04535L43.1915 10.6964C43.0881 10.8796 43.0142 11.078 42.9726 11.2843L38.7868 32.0452C38.6747 32.6013 38.3316 33.0837 37.8431 33.3721L32.6636 36.4303C32.2206 36.6919 31.8955 37.1141 31.7557 37.6092L29.8592 44.3279C29.4319 45.8418 27.5047 46.2925 26.4503 45.1252L21.9851 40.1818C21.86 40.0433 21.7548 39.8879 21.6728 39.7202L18.8275 33.9047C17.9686 32.1492 15.3606 32.5411 15.0555 34.4714L13.696 43.0718C13.4185 44.8274 11.1598 45.3758 10.1082 43.9428L9.0862 42.5503C8.21217 41.3594 6.39304 41.4944 5.70442 42.8013Z" fill="url(#paint0_linear_40_14408)"/>
<path d="M1 51.7297L5.70442 42.8013C6.39304 41.4944 8.21217 41.3594 9.0862 42.5503L10.1082 43.9428C11.1598 45.3758 13.4185 44.8274 13.696 43.0718L15.0555 34.4714C15.3606 32.5411 17.9686 32.1492 18.8275 33.9047L21.6728 39.7202C21.7548 39.8879 21.86 40.0433 21.9851 40.1818L26.4503 45.1252C27.5047 46.2925 29.4319 45.8418 29.8592 44.3279L31.7557 37.6092C31.8955 37.1141 32.2206 36.6919 32.6636 36.4303L37.8431 33.3721C38.3316 33.0837 38.6747 32.6013 38.7868 32.0452L42.9726 11.2843C43.0142 11.078 43.0881 10.8796 43.1915 10.6964L46.3818 5.04535C47.3161 3.39032 49.8151 3.84907 50.1007 5.72804L52.2852 20.1005C52.3132 20.2849 52.3669 20.4644 52.4446 20.6338L55.6273 27.5724C56.4235 29.3084 58.9676 29.0472 59.3945 27.1857L62.7859 12.3985C63.1794 10.6828 65.4374 10.2755 66.4056 11.7455L69.6394 16.6554C69.89 17.0359 70.2629 17.3194 70.6965 17.459L78.7236 20.0442C79.3658 20.2511 79.8492 20.7842 79.9923 21.4435V21.4435C80.43 23.4591 83.3187 23.4189 83.7001 21.392L86.5823 6.07589C86.9411 4.16928 89.5317 3.83885 90.3575 5.59437L94.2882 13.9495C94.3379 14.055 94.3966 14.156 94.4639 14.2513L101 23.5135" stroke="#40C4AA" stroke-width="2" stroke-linecap="round"/>
<defs>
<linearGradient id="paint0_linear_40_14408" x1="51" y1="-44.5" x2="51" y2="58" gradientUnits="userSpaceOnUse">
<stop stop-color="#FF3B30"/>
<stop offset="0.0001" stop-color="#40C4AA"/>
<stop offset="0.703037" stop-color="#40C4AA" stop-opacity="0.190091"/>
<stop offset="1" stop-color="#40C4AA" stop-opacity="0"/>
</linearGradient>
</defs>
</svg>
