<svg width="36" height="36" viewBox="0 0 36 36" fill="none" xmlns="http://www.w3.org/2000/svg">
<rect width="36" height="36" rx="18" fill="#821FFF"/>
<path d="M15.475 26.3333H20.475C24.6417 26.3333 26.3083 24.6666 26.3083 20.5V15.5C26.3083 11.3333 24.6417 9.66663 20.475 9.66663H15.475C11.3083 9.66663 9.64166 11.3333 9.64166 15.5V20.5C9.64166 24.6666 11.3083 26.3333 15.475 26.3333Z" stroke="white" stroke-width="1.5" stroke-linecap="round" stroke-linejoin="round"/>
<path d="M9.64166 18.5833L14.6417 18.5667C15.2667 18.5667 15.9667 19.0417 16.2 19.625L17.15 22.025C17.3667 22.5667 17.7083 22.5667 17.925 22.025L19.8333 17.1833C20.0167 16.7167 20.3583 16.7 20.5917 17.1417L21.4583 18.7833C21.7167 19.275 22.3833 19.675 22.9333 19.675H26.3167" stroke="white" stroke-width="1.5" stroke-linecap="round" stroke-linejoin="round"/>
</svg>
