<svg width="272" height="40" viewBox="0 0 272 40" fill="none" xmlns="http://www.w3.org/2000/svg">
<mask id="path-1-inside-1_40_14305" fill="white">
<path fill-rule="evenodd" clip-rule="evenodd" d="M0 20C0 8.95431 8.9543 0 20 0H102C108.535 0 114.338 3.13438 117.988 7.98182C119.692 10.2452 122.167 12 125 12C127.833 12 130.308 10.2452 132.012 7.98182C135.662 3.13438 141.465 0 148 0H252C263.046 0 272 8.95431 272 20C272 31.0457 263.046 40 252 40H148C141.465 40 135.662 36.8656 132.012 32.0182C130.308 29.7548 127.833 28 125 28C122.167 28 119.692 29.7548 117.988 32.0182C114.338 36.8656 108.535 40 102 40H20C8.9543 40 0 31.0457 0 20Z"/>
</mask>
<path fill-rule="evenodd" clip-rule="evenodd" d="M0 20C0 8.95431 8.9543 0 20 0H102C108.535 0 114.338 3.13438 117.988 7.98182C119.692 10.2452 122.167 12 125 12C127.833 12 130.308 10.2452 132.012 7.98182C135.662 3.13438 141.465 0 148 0H252C263.046 0 272 8.95431 272 20C272 31.0457 263.046 40 252 40H148C141.465 40 135.662 36.8656 132.012 32.0182C130.308 29.7548 127.833 28 125 28C122.167 28 119.692 29.7548 117.988 32.0182C114.338 36.8656 108.535 40 102 40H20C8.9543 40 0 31.0457 0 20Z" fill="white"/>
<path d="M117.988 32.0182L117.189 31.4167L117.988 32.0182ZM132.012 32.0182L131.213 32.6197L132.012 32.0182ZM132.012 7.98182L131.213 7.38034L132.012 7.98182ZM117.988 7.98182L117.189 8.5833L117.988 7.98182ZM20 -1C8.40202 -1 -1 8.40202 -1 20H1C1 9.50659 9.50659 1 20 1V-1ZM102 -1H20V1H102V-1ZM118.787 7.38034C114.956 2.29277 108.863 -1 102 -1V1C108.208 1 113.72 3.97598 117.189 8.5833L118.787 7.38034ZM132.811 8.58331C136.28 3.97598 141.792 1 148 1V-1C141.137 -1 135.044 2.29277 131.213 7.38034L132.811 8.58331ZM148 1H252V-1H148V1ZM252 1C262.493 1 271 9.50659 271 20H273C273 8.40202 263.598 -1 252 -1V1ZM271 20C271 30.4934 262.493 39 252 39V41C263.598 41 273 31.598 273 20H271ZM252 39H148V41H252V39ZM148 39C141.792 39 136.28 36.024 132.811 31.4167L131.213 32.6197C135.044 37.7072 141.137 41 148 41V39ZM102 41C108.862 41 114.956 37.7072 118.787 32.6197L117.189 31.4167C113.72 36.024 108.208 39 102 39V41ZM20 41H102V39H20V41ZM-1 20C-1 31.598 8.40202 41 20 41V39C9.50659 39 1 30.4934 1 20H-1ZM125 27C121.738 27 119 29.0106 117.189 31.4167L118.787 32.6197C120.383 30.4991 122.595 29 125 29V27ZM132.811 31.4167C131 29.0106 128.262 27 125 27V29C127.405 29 129.617 30.4991 131.213 32.6197L132.811 31.4167ZM125 13C128.262 13 131 10.9894 132.811 8.58331L131.213 7.38034C129.617 9.50093 127.405 11 125 11V13ZM117.189 8.5833C119 10.9894 121.738 13 125 13V11C122.595 11 120.383 9.50093 118.787 7.38034L117.189 8.5833Z" fill="#B479FF" mask="url(#path-1-inside-1_40_14305)"/>
</svg>
