<svg width="36" height="36" viewBox="0 0 36 36" fill="none" xmlns="http://www.w3.org/2000/svg">
<rect width="36" height="36" rx="18" fill="#821FFF"/>
<path d="M21 15V12.3755C21 11.7517 21 11.4398 20.8686 11.2481C20.7538 11.0806 20.576 10.9669 20.3758 10.9328C20.1467 10.8938 19.8635 11.0245 19.2971 11.2859L12.6443 14.3565C12.1391 14.5896 11.8866 14.7062 11.7016 14.887C11.538 15.0468 11.4132 15.2419 11.3366 15.4574C11.25 15.7011 11.25 15.9793 11.25 16.5356V20.25M21.375 19.875H21.3825M11.25 17.4L11.25 22.35C11.25 23.1901 11.25 23.6101 11.4135 23.931C11.5573 24.2132 11.7868 24.4427 12.069 24.5865C12.3899 24.75 12.8099 24.75 13.65 24.75H22.35C23.1901 24.75 23.6101 24.75 23.931 24.5865C24.2132 24.4427 24.4427 24.2132 24.5865 23.931C24.75 23.6101 24.75 23.1901 24.75 22.35V17.4C24.75 16.5599 24.75 16.1399 24.5865 15.819C24.4427 15.5368 24.2132 15.3073 23.931 15.1635C23.6101 15 23.1901 15 22.35 15L13.65 15C12.8099 15 12.3899 15 12.069 15.1635C11.7868 15.3073 11.5573 15.5368 11.4135 15.819C11.25 16.1399 11.25 16.5599 11.25 17.4ZM21.75 19.875C21.75 20.0821 21.5821 20.25 21.375 20.25C21.1679 20.25 21 20.0821 21 19.875C21 19.6679 21.1679 19.5 21.375 19.5C21.5821 19.5 21.75 19.6679 21.75 19.875Z" stroke="white" stroke-width="1.5" stroke-linecap="round" stroke-linejoin="round"/>
</svg>
